<?xml version="1.0" encoding="UTF-8"?>
<svg width="18px" height="18px" viewBox="0 0 18 18" version="1.1" xmlns="http://www.w3.org/2000/svg" xmlns:xlink="http://www.w3.org/1999/xlink">
    <!-- Generator: Sketch 64 (93537) - https://sketch.com -->
    <title>agregar btn</title>
    <desc>Created with Sketch.</desc>
    <g id="MESA-DE-PARTES" stroke="none" stroke-width="1" fill="none" fill-rule="evenodd">
        <g id="MESA-DE-PARTES-agregar-OA" transform="translate(-1297.000000, -615.000000)" fill="#FFFFFF" fill-rule="nonzero">
            <g id="boton-agregar-" transform="translate(1149.000000, 599.000000)">
                <g id="agregar-btn" transform="translate(148.000000, 16.000000)">
                    <path d="M9,0 C13.9705627,0 18,4.02943725 18,9 C18,13.9705627 13.9705627,18 9,18 C4.02943725,18 0,13.9705627 0,9 C0,4.02943725 4.02943725,0 9,0 Z M9,1.5 C4.85786438,1.5 1.5,4.85786438 1.5,9 C1.5,13.1421356 4.85786438,16.5 9,16.5 C13.1421356,16.5 16.5,13.1421356 16.5,9 C16.5,4.85786438 13.1421356,1.5 9,1.5 Z" id="Oval"></path>
                    <polygon id="+" points="10.3424316 12.9306641 10.3424316 9.8984375 12.9791504 9.8984375 12.9791504 8.05273438 10.3424316 8.05273438 10.3424316 5.16699219 8.32094727 5.16699219 8.32094727 8.05273438 5.66958008 8.05273438 5.66958008 9.8984375 8.32094727 9.8984375 8.32094727 12.9306641"></polygon>
                </g>
            </g>
        </g>
    </g>
</svg>