<svg width="64" height="60" viewBox="0 0 64 60" fill="none" xmlns="http://www.w3.org/2000/svg">
<path d="M37.8352 4.19301C36.3642 1.4975 34.3047 0 32.049 0C29.7934 0 27.7339 1.4975 26.2629 4.19301L1.2548 49.6173C-0.216259 52.3128 -0.412401 54.9085 0.764449 56.9052C1.9413 58.9018 4.295 60 7.33519 60H56.6648C59.705 60 62.0587 58.9018 63.2355 56.9052C64.4124 54.9085 64.2163 52.3128 62.7452 49.6173L37.8352 4.19301Z" fill="#EA1818"/>
<path d="M32.0491 45.9236C30.1858 45.9236 28.7147 47.4211 28.7147 49.3179C28.7147 51.2148 30.1858 52.7123 32.0491 52.7123C33.9125 52.7123 35.3835 51.2148 35.3835 49.3179C35.3835 47.4211 33.9125 45.9236 32.0491 45.9236Z" fill="white"/>
<path d="M32.0491 41.9301C33.2259 41.9301 34.3047 40.4326 34.4028 38.6356L35.6777 16.8719C35.7758 15.0749 34.4028 13.5774 32.5394 13.5774H31.4607C29.6954 13.5774 28.2243 15.0749 28.3224 16.8719L29.5973 38.6356C29.7934 40.4326 30.8722 41.9301 32.0491 41.9301Z" fill="white"/>
</svg>
