<svg width="26" height="26" viewBox="0 0 26 26" fill="none" xmlns="http://www.w3.org/2000/svg">
<path fill-rule="evenodd" clip-rule="evenodd" d="M26 13C26 5.8203 20.1797 0 13 0C5.8203 0 0 5.8203 0 13C0 20.1797 5.8203 26 13 26C20.1797 26 26 20.1797 26 13ZM2.08 13C2.08 6.96905 6.96905 2.08 13 2.08C19.0309 2.08 23.92 6.96905 23.92 13C23.92 19.0309 19.0309 23.92 13 23.92C6.96905 23.92 2.08 19.0309 2.08 13Z" fill="#CC1D23"/>
<path d="M14.3928 18V14.0943H18V11.717H14.3928V8H11.6273V11.717H8V14.0943H11.6273V18H14.3928Z" fill="#CC1D23"/>
</svg>
