<svg width="25" height="25" viewBox="0 0 25 25" fill="none" xmlns="http://www.w3.org/2000/svg">
<g clip-path="url(#clip0_317_51)">
<path d="M6.86943 18.1304C7.02217 18.2831 7.22178 18.3593 7.42178 18.3593C7.62178 18.3593 7.82139 18.2831 7.97412 18.1304L12.4999 13.6046L17.0257 18.1304C17.1784 18.2831 17.378 18.3593 17.578 18.3593C17.778 18.3593 17.9776 18.2831 18.1304 18.1304C18.4355 17.8253 18.4355 17.3308 18.1304 17.0257L13.6046 12.4999L18.1304 7.97412C18.4355 7.66904 18.4355 7.17451 18.1304 6.86943C17.8253 6.56436 17.3308 6.56436 17.0257 6.86943L12.4999 11.3952L7.97412 6.86943C7.66904 6.56436 7.17451 6.56436 6.86943 6.86943C6.56436 7.17451 6.56436 7.66904 6.86943 7.97412L11.3952 12.4999L6.86943 17.0257C6.56436 17.3308 6.56436 17.8253 6.86943 18.1304Z" fill="#CC1D23"/>
<path d="M12.5 25C15.8387 25 18.9777 23.6996 21.3383 21.3387C23.6996 18.9777 25 15.8387 25 12.5C25 9.16133 23.6996 6.02227 21.3383 3.66172C18.9777 1.30039 15.8387 0 12.5 0C9.16133 0 6.02227 1.30039 3.66172 3.66133C1.30039 6.02227 0 9.16133 0 12.5C0 15.8387 1.30039 18.9777 3.66172 21.3383C6.02227 23.6996 9.16133 25 12.5 25ZM4.76641 4.76641C6.83203 2.70039 9.57852 1.5625 12.5 1.5625C15.4215 1.5625 18.168 2.70039 20.2336 4.76641C22.2996 6.83203 23.4375 9.57852 23.4375 12.5C23.4375 15.4215 22.2996 18.168 20.2336 20.2336C18.168 22.2996 15.4215 23.4375 12.5 23.4375C9.57852 23.4375 6.83203 22.2996 4.76641 20.2336C2.70039 18.168 1.5625 15.4215 1.5625 12.5C1.5625 9.57852 2.70039 6.83203 4.76641 4.76641Z" fill="#CC1D23"/>
</g>
<defs>
<clipPath id="clip0_317_51">
<rect width="25" height="25" fill="white"/>
</clipPath>
</defs>
</svg>
