<?xml version="1.0" encoding="UTF-8"?>
<svg width="21px" height="24px" viewBox="0 0 21 24" version="1.1" xmlns="http://www.w3.org/2000/svg" xmlns:xlink="http://www.w3.org/1999/xlink">
    <!-- Generator: Sketch 64 (93537) - https://sketch.com -->
    <title>buscar doc white</title>
    <desc>Created with Sketch.</desc>
    <g id="MESA-DE-PARTES" stroke="none" stroke-width="1" fill="none" fill-rule="evenodd">
        <g id="MESA-DE-PARTES-todos" transform="translate(-275.000000, -197.000000)" fill="#FFFFFF" fill-rule="nonzero">
            <g id="buscar-doc-white" transform="translate(275.000000, 197.000000)">
                <path d="M17.7849558,13.6535433 C17.4411504,12.0377953 16.1867257,10.8661417 14.5699115,10.6677165 L14.5699115,10.6677165 C13.3433628,10.5165354 12.2747788,10.903937 11.3734513,11.8204724 C11.3548673,11.8393701 11.3362832,11.8582677 11.3176991,11.896063 C11.2619469,11.9433071 11.2061947,12.0094488 11.1597345,12.0850394 C11.1597345,12.0944882 11.1504425,12.0944882 11.1411504,12.103937 C11.1225664,12.1228346 11.0853982,12.1606299 11.0668142,12.207874 C11.029646,12.2456693 11.0017699,12.2929134 10.9738938,12.3401575 C10.9646018,12.3496063 10.9553097,12.3590551 10.9460177,12.3779528 C10.0725664,13.6913386 10.1190265,15.4866142 11.0575221,16.7433071 C11.8380531,17.7826772 12.850885,18.311811 14.0867257,18.311811 C14.2168142,18.311811 14.3376106,18.3023622 14.4676991,18.2929134 C15.2853982,18.2267717 16.019469,17.8866142 16.6606195,17.2913386 C16.6699115,17.2818898 16.6884956,17.2724409 16.6977876,17.2629921 C16.7442478,17.2251969 16.790708,17.1779528 16.8278761,17.1212598 L16.8278761,17.1212598 C16.8464602,17.111811 16.8557522,17.0929134 16.8743363,17.0740157 C17.7477876,16.0724409 18.0544248,14.9291339 17.7849558,13.6535433 Z M16.1867257,16.1385827 L16.1867257,16.1385827 C16.1681416,16.1574803 16.1588496,16.176378 16.1402655,16.2047244 L16.1402655,16.2047244 C16.1030973,16.2425197 16.0659292,16.280315 16.0380531,16.3275591 C16.019469,16.3370079 16.010177,16.3559055 16.000885,16.3653543 C15.9544248,16.4031496 15.9079646,16.4409449 15.8800885,16.4787402 C15.8429204,16.4976378 15.8243363,16.5259843 15.8057522,16.5448819 C15.7685841,16.5732283 15.7314159,16.6015748 15.6942478,16.6393701 C15.6663717,16.6488189 15.6384956,16.6677165 15.6199115,16.696063 C15.5641593,16.7244094 15.5269912,16.7527559 15.489823,16.7811024 C15.0159292,17.0551181 14.5513274,17.1874016 14.0588496,17.1685039 C12.7858407,17.1307087 11.7637168,16.2519685 11.5128319,14.9858268 C11.3734513,14.296063 11.5314159,13.5590551 11.9402655,12.9543307 C12.349115,12.3496063 12.9809735,11.9433071 13.659292,11.8299213 C13.8172566,11.8015748 13.9659292,11.792126 14.1146018,11.792126 C14.5977876,11.792126 15.0438053,11.9149606 15.4712389,12.1700787 C15.5084071,12.1889764 15.5362832,12.2173228 15.5734513,12.2362205 C15.5920354,12.2456693 15.6106195,12.2645669 15.6292035,12.2740157 L15.6477876,12.2834646 C16.1216814,12.6330709 16.4469027,13.0771654 16.6141593,13.6062992 C16.9022124,14.5133858 16.7535398,15.3637795 16.1867257,16.1385827 Z" id="Shape"></path>
                <path d="M20.9256637,18.8787402 C20.9163717,18.8692913 20.9163717,18.8409449 20.9070796,18.8220472 C20.8977876,18.7937008 20.8977876,18.7653543 20.8884956,18.7370079 C20.730531,18.207874 20.4517699,17.8204724 20.0336283,17.5370079 C19.9128319,17.4519685 19.7920354,17.3669291 19.6712389,17.2818898 C19.6154867,17.2346457 19.5504425,17.1968504 19.4946903,17.1496063 C19.5597345,17.0173228 19.6247788,16.8755906 19.6712389,16.7433071 C20.1823009,15.4393701 20.2380531,14.0976378 19.8570796,12.7559055 C19.7641593,12.415748 19.6340708,12.0944882 19.4853982,11.792126 C19.2345133,11.2724409 18.9185841,10.8094488 18.5654867,10.4125984 C18.5654867,10.4031496 18.5561947,10.4031496 18.5561947,10.4031496 C18.5561947,10.280315 18.5561947,10.1480315 18.5561947,10.0251969 L18.5561947,9.88346457 L18.5561947,9.27874016 L18.5561947,8.58897638 C18.5561947,7.8992126 18.5561947,7.2 18.5561947,6.51023622 C18.5561947,6.32125984 18.4911504,6.17007874 18.3610619,6.03779528 C17.6455752,5.31023622 16.9300885,4.58267717 16.2146018,3.85511811 L15.1460177,2.72125984 L15.1367257,2.71181102 C15.1181416,2.69291339 15.0995575,2.66456693 15.0623894,2.64566929 C15.0159292,2.57952756 14.960177,2.53228346 14.9044248,2.49448819 C14.8207965,2.39055118 14.7278761,2.29606299 14.6349558,2.21102362 C14.5977876,2.17322835 14.5606195,2.14488189 14.5234513,2.10708661 C14.2075221,1.78582677 13.900885,1.46456693 13.5849558,1.15275591 C13.2783186,0.840944882 12.9809735,0.538582677 12.6743363,0.226771654 C12.6,0.151181102 12.5163717,0.0850393701 12.4048673,0.0283464567 L12.3676991,0.0094488189 L1.70973451,0.0094488189 L1.67256637,0.0283464567 C1.66327434,0.0377952756 1.63539823,0.0377952756 1.60752212,0.0472440945 C1.57964602,0.0472440945 1.55176991,0.0566929134 1.51460177,0.0661417323 C0.715486726,0.292913386 0.213716814,0.822047244 0.0371681416,1.64409449 C0.0371681416,1.65354331 0.0371681416,1.65354331 0.0371681416,1.66299213 L0.0092920354,1.68188976 L0.0092920354,22.2047244 L0.0278761062,22.2425197 C0.0371681416,22.2614173 0.0371681416,22.2897638 0.046460177,22.3181102 C0.046460177,22.3464567 0.0557522124,22.3748031 0.0650442478,22.4125984 C0.269469027,23.1779528 0.761946903,23.6787402 1.51460177,23.8866142 C1.55176991,23.896063 1.57964602,23.896063 1.60752212,23.896063 C1.60752212,23.896063 1.61681416,23.896063 1.61681416,23.896063 L1.74690265,23.9338583 L1.80265487,23.9338583 C1.83053097,23.9338583 1.86769912,23.9338583 1.89557522,23.9338583 C1.93274336,23.9338583 1.96061947,23.9338583 1.97920354,23.9244094 C2.01637168,23.9338583 2.05353982,23.9338583 2.07212389,23.9338583 C2.09070796,23.9338583 2.11858407,23.9338583 2.15575221,23.9244094 C2.18362832,23.9338583 2.21150442,23.9338583 2.23938053,23.9338583 C2.28584071,23.9338583 2.33230088,23.9244094 2.35088496,23.9149606 C2.35088496,23.9149606 2.35088496,23.9149606 2.35088496,23.9149606 C2.40663717,23.9244094 2.48097345,23.9433071 2.53672566,23.9244094 C2.56460177,23.9338583 2.60176991,23.9338583 2.63893805,23.9338583 L2.64823009,23.9338583 C2.66681416,23.9338583 2.7039823,23.9338583 2.74115044,23.9244094 C2.75973451,23.9338583 2.77831858,23.9338583 2.79690265,23.9338583 C2.85265487,23.9433071 2.89911504,23.9338583 2.93628319,23.9149606 C2.96415929,23.9244094 3.00132743,23.9338583 3.04778761,23.9338583 C3.08495575,23.9338583 3.12212389,23.9338583 3.15,23.9244094 C3.17787611,23.9338583 3.19646018,23.9338583 3.23362832,23.9338583 C3.23362832,23.9338583 3.23362832,23.9338583 3.23362832,23.9338583 C3.27079646,23.9338583 3.3079646,23.9244094 3.33584071,23.9149606 L3.33584071,23.9149606 C3.38230088,23.9338583 3.42876106,23.9338583 3.44734513,23.9338583 L3.45663717,23.9338583 C3.47522124,23.9338583 3.51238938,23.9338583 3.55884956,23.9149606 L7.6380531,23.9149606 C7.67522124,23.9338583 7.73097345,23.9433071 7.80530973,23.9149606 C7.80530973,23.9149606 7.80530973,23.9149606 7.80530973,23.9149606 L7.81460177,23.9149606 C7.84247788,23.9149606 7.86106195,23.9149606 7.87964602,23.9149606 L12.9809735,23.9149606 C13.0181416,23.9338583 13.0553097,23.9338583 13.0831858,23.9338583 C13.1110619,23.9338583 13.129646,23.9338583 13.1482301,23.9244094 C13.1761062,23.9338583 13.2132743,23.9433071 13.2597345,23.9244094 C13.2690265,23.9244094 13.2783186,23.9149606 13.2876106,23.9149606 L16.8557522,23.9149606 L16.9207965,23.9055118 C16.9765487,23.896063 17.0415929,23.8771654 17.0973451,23.8677165 C17.329646,23.8015748 17.5340708,23.6787402 17.7013274,23.5748031 C17.9707965,23.3952756 18.1845133,23.1496063 18.3424779,22.8377953 C18.4725664,22.5732283 18.5469027,22.2897638 18.5469027,22.015748 C18.5469027,21.8173228 18.5469027,21.6283465 18.5469027,21.4393701 C18.8535398,21.4866142 19.160177,21.4582677 19.4482301,21.3637795 C20.219469,21.1086614 20.7119469,20.5700787 20.8884956,19.776378 L20.9256637,19.7669291 L20.9256637,18.9259843 L20.9256637,18.8787402 Z M2.67610619,22.7905512 C2.48097345,22.7905512 2.27654867,22.7905512 2.08141593,22.7905512 C2.08141593,22.7905512 2.08141593,22.7905512 2.08141593,22.7905512 C1.80265487,22.7905512 1.60752212,22.7338583 1.45884956,22.6015748 C1.25442478,22.4314961 1.15221239,22.223622 1.14292035,21.9685039 C1.14292035,21.9401575 1.14292035,21.9023622 1.14292035,21.8740157 L1.14292035,18.6614173 C1.14292035,13.1527559 1.14292035,7.64409449 1.14292035,2.13543307 C1.14292035,1.84251969 1.18938053,1.65354331 1.31017699,1.49291339 C1.47743363,1.27559055 1.68185841,1.16220472 1.95132743,1.15275591 C1.9699115,1.15275591 1.98849558,1.15275591 2.00707965,1.15275591 C2.01637168,1.15275591 2.03495575,1.15275591 2.04424779,1.15275591 L11.6707965,1.15275591 C11.6707965,1.15275591 11.6800885,1.15275591 11.6800885,1.15275591 C11.6800885,1.60629921 11.6800885,2.0503937 11.6800885,2.50393701 L11.6800885,2.9007874 L11.6800885,3.51496063 C11.6800885,4.02519685 11.6800885,4.53543307 11.6800885,5.03622047 C11.6800885,6.17007874 12.5256637,7.02047244 13.640708,7.02047244 C14.5420354,7.02047244 15.4526549,7.02047244 16.3539823,7.02047244 L17.4597345,7.02047244 L17.4597345,9.4015748 C16.9672566,9.07086614 16.4840708,8.83464567 15.9823009,8.67401575 L15.9172566,8.65511811 C15.759292,8.60787402 15.6013274,8.5511811 15.4340708,8.52283465 C14.6256637,8.34330709 13.8265487,8.33385827 13.0553097,8.47559055 C12.7022124,8.54173228 12.4048673,8.61732283 12.1353982,8.72125984 C11.6150442,8.91023622 11.1783186,9.13700787 10.7973451,9.4015748 C10.249115,9.77952756 9.80309735,10.2047244 9.42212389,10.6866142 C8.99469027,11.2346457 8.66946903,11.8393701 8.45575221,12.4724409 C8.18628319,13.2566929 8.0840708,14.0598425 8.13982301,14.8724409 C8.17699115,15.5055118 8.30707965,16.0818898 8.51150442,16.6204724 C8.60442478,16.8566929 8.70663717,17.1307087 8.8460177,17.3858268 C9.26415929,18.1606299 9.82168142,18.8220472 10.509292,19.3511811 C10.7137168,19.511811 10.9367257,19.6440945 11.1504425,19.776378 C11.7358407,20.1354331 12.4048673,20.3811024 13.129646,20.503937 C14.0681416,20.6645669 14.9973451,20.5984252 15.8893805,20.3149606 C16.1309735,20.2393701 16.4469027,20.1259843 16.7535398,19.9653543 C16.8836283,20.1637795 17.0230088,20.3622047 17.1438053,20.5417323 C17.2181416,20.6456693 17.320354,20.7874016 17.4504425,20.9007874 C17.4504425,21.0425197 17.4504425,21.184252 17.4504425,21.3259843 C17.4504425,21.5433071 17.4504425,21.7606299 17.4504425,21.9779528 C17.4504425,22.4220472 17.0880531,22.7905512 16.6513274,22.8094488 C16.6327434,22.8094488 16.6048673,22.8094488 16.5862832,22.8094488 L13.9659292,22.8094488 C10.2119469,22.8094488 6.4579646,22.8094488 2.69469027,22.8094488 L2.71327434,22.7811024 L2.67610619,22.7905512 Z M12.7951327,1.99370079 L16.6141593,5.87716535 L13.6221239,5.87716535 C13.1482301,5.87716535 12.8044248,5.52755906 12.8044248,5.04566929 C12.8044248,4.27086614 12.8044248,3.50551181 12.8044248,2.73070866 L12.7951327,1.99370079 Z M16.4747788,18.0094488 C16.3725664,18.0094488 16.2610619,18.0377953 16.1681416,18.103937 C15.8986726,18.2929134 15.8429204,18.6330709 16.019469,18.9070866 L16.0380531,18.9354331 C16.0566372,18.9543307 16.0659292,18.9826772 16.0845133,19.0015748 C15.7314159,19.1622047 15.3504425,19.2850394 14.960177,19.3511811 C14.4119469,19.4551181 13.8451327,19.4551181 13.2783186,19.3606299 C13.0646018,19.3228346 12.869469,19.2661417 12.6557522,19.2 L12.6464602,19.2 C12.4327434,19.1338583 12.2097345,19.0488189 11.9495575,18.9165354 C11.7451327,18.8125984 11.540708,18.6897638 11.3362832,18.5480315 C10.8159292,18.1795276 10.3699115,17.7165354 10.0075221,17.1496063 C9.85884956,16.9133858 9.74734513,16.7149606 9.66371681,16.5259843 C9.33849558,15.7606299 9.19911504,14.9858268 9.23628319,14.2110236 C9.25486726,13.9464567 9.28274336,13.6818898 9.33849558,13.4173228 C9.41283186,13.0677165 9.52433628,12.7181102 9.69159292,12.3496063 C9.70088496,12.3307087 9.71017699,12.3023622 9.71946903,12.2834646 L9.99823009,11.7826772 C10.0168142,11.7543307 10.0446903,11.7165354 10.0725664,11.6692913 C10.1097345,11.6314961 10.1376106,11.584252 10.1561947,11.5464567 C10.1561947,11.5370079 10.1654867,11.5370079 10.1654867,11.5275591 L10.230531,11.4519685 C10.3606195,11.2913386 10.4814159,11.1401575 10.6115044,10.9984252 C10.8623894,10.7338583 11.1597345,10.4976378 11.4756637,10.280315 C11.6243363,10.1858268 11.7730088,10.1007874 11.9402655,10.015748 L12.0146018,9.97795276 C12.1539823,9.9023622 12.3026549,9.84566929 12.4606195,9.78897638 L12.4977876,9.77952756 C12.6,9.74173228 12.7115044,9.71338583 12.8323009,9.67559055 C12.9066372,9.65669291 12.9716814,9.63779528 13.0460177,9.61889764 C13.1110619,9.60944882 13.1946903,9.6 13.2876106,9.57165354 C13.3619469,9.56220472 13.4362832,9.55275591 13.5106195,9.54330709 C13.6314159,9.52440945 13.7429204,9.51496063 13.8637168,9.50551181 C14.2168142,9.48661417 14.5792035,9.51496063 14.969469,9.58110236 C15.5362832,9.67559055 16.0938053,9.89291339 16.6327434,10.2141732 C16.9951327,10.4314961 17.3389381,10.7149606 17.6548673,11.0645669 C17.8778761,11.3007874 18.0823009,11.5748031 18.2774336,11.896063 C18.3982301,12.0850394 18.4911504,12.2929134 18.5561947,12.4535433 C18.9278761,13.3133858 19.0486726,14.2204724 18.9278761,15.1653543 C18.890708,15.4393701 18.8256637,15.7322835 18.7234513,16.0535433 C18.6862832,16.1669291 18.639823,16.2897638 18.5840708,16.4031496 C18.5747788,16.4220472 18.5654867,16.4409449 18.5561947,16.4598425 C18.5190265,16.4314961 18.4818584,16.4125984 18.4539823,16.3937008 C18.1845133,16.223622 17.859292,16.2897638 17.6827434,16.5448819 C17.5061947,16.8 17.5712389,17.1401575 17.8128319,17.3291339 C17.9429204,17.423622 18.0730088,17.5181102 18.2030973,17.6031496 C18.3331858,17.688189 18.4632743,17.7826772 18.5840708,17.8771654 C18.6955752,17.9622047 18.8163717,18.0472441 18.9371681,18.1228346 C19.1787611,18.2834646 19.4017699,18.4346457 19.5969027,18.6330709 C19.7269912,18.7653543 19.8106195,18.9448819 19.8292035,19.1811024 C19.8570796,19.4740157 19.7734513,19.7385827 19.5783186,19.9559055 C19.2252212,20.3433071 18.7234513,20.3338583 18.379646,20.1543307 C18.1845133,20.0503937 18.0637168,19.8708661 17.9429204,19.6818898 L17.580531,19.1622047 C17.3668142,18.8503937 17.1530973,18.5480315 16.9486726,18.2362205 C16.8371681,18.0944882 16.6606195,18.0094488 16.4747788,18.0094488 Z M2.35469027,23.9185433 C2.35469027,23.9185433 2.34469027,23.9185433 2.35469027,23.9185433 L2.35469027,23.9185433 C2.34469027,23.9185433 2.34469027,23.9185433 2.35469027,23.9185433 L2.35469027,23.9185433 L2.35469027,23.8885433 L2.35469027,23.9185433 Z" id="Shape"></path>
            </g>
        </g>
    </g>
</svg>