<svg width="74" height="72" viewBox="0 0 74 72" fill="none" xmlns="http://www.w3.org/2000/svg">
<g clip-path="url(#clip0_317_4)">
<path d="M60.1249 37.5768C58.8235 37.2848 57.4707 37.125 56.078 37.125C55.6889 37.125 55.3045 37.1414 54.9218 37.165C46.2366 37.7038 39.2361 44.2581 38.2731 52.5938C38.1984 53.2402 38.1562 53.8965 38.1562 54.5625C38.1562 55.8169 38.2955 57.0392 38.5539 58.2188C40.2815 66.0932 47.4692 72.0001 56.078 72.0001C65.9761 72.0001 73.9999 64.1931 73.9999 54.5625C73.9999 46.287 68.0729 39.3626 60.1249 37.5768ZM56.078 66.0938C49.5325 66.0938 44.2264 60.9311 44.2264 54.5625C44.2264 48.1939 49.5325 43.0312 56.078 43.0312C62.6235 43.0312 67.9296 48.1939 67.9296 54.5625C67.9296 60.9311 62.6235 66.0938 56.078 66.0938Z" fill="#CC1D23"/>
<path d="M60.9956 47.6846L56.499 52.0597L52.0023 47.6846L49.1406 50.4689L53.6373 54.8441L49.1406 59.2192L52.0023 62.0035L56.499 57.6285L60.9956 62.0035L63.8574 59.2192L59.3608 54.8441L63.8574 50.4689L60.9956 47.6846Z" fill="#CC1D23"/>
<path d="M13.2968 0C12.181 0 11.2734 0.883176 11.2734 1.96871V6.46871V11.25C11.2734 12.3356 12.181 13.2187 13.2968 13.2187H15.0312C16.147 13.2187 17.0546 12.3355 17.0546 11.25V6.46871V1.96871C17.0546 0.883176 16.147 0 15.0311 0H13.2968Z" fill="#CC1D23"/>
<path d="M45.0938 13.2187H46.8282C47.944 13.2187 48.8516 12.3355 48.8516 11.25V6.46871V1.96871C48.8516 0.883176 47.9439 0 46.8281 0H45.0937C43.9779 0 43.0703 0.883176 43.0703 1.96871V6.46871V11.25C43.0703 12.3356 43.978 13.2187 45.0938 13.2187Z" fill="#CC1D23"/>
<path d="M4.625 58.2188H32.6641C32.382 56.854 32.2322 55.4439 32.2322 54C32.2322 53.527 32.2536 53.059 32.2848 52.5938H8.67191C6.75601 52.5938 5.20309 51.0829 5.20309 49.2188V22.2188H54.9219V32.6549C55.3046 32.6357 55.6902 32.6251 56.0781 32.6251C57.461 32.6251 58.812 32.7556 60.125 32.9946V10.9688C60.125 8.48357 58.0542 6.46875 55.5 6.46875H51.7422V11.25C51.7422 13.8865 49.5379 16.0313 46.8281 16.0313H45.0937C42.384 16.0313 40.1796 13.8865 40.1796 11.25V6.46875H19.9453V11.25C19.9453 13.8865 17.7409 16.0313 15.0312 16.0313H13.2968C10.5871 16.0313 8.38268 13.8865 8.38268 11.25V6.46875H4.625C2.07079 6.46875 0 8.48369 0 10.9688V53.7188C0 56.2039 2.07079 58.2188 4.625 58.2188Z" fill="#CC1D23"/>
<path d="M16.2962 35.1218C18.8308 35.1218 20.8854 33.1226 20.8854 30.6566C20.8854 28.1905 18.8308 26.1914 16.2962 26.1914C13.7617 26.1914 11.707 28.1905 11.707 30.6566C11.707 33.1226 13.7617 35.1218 16.2962 35.1218Z" fill="#CC1D23"/>
<path d="M30.0628 35.1218C32.5974 35.1218 34.6521 33.1226 34.6521 30.6566C34.6521 28.1905 32.5974 26.1914 30.0628 26.1914C27.5283 26.1914 25.4736 28.1905 25.4736 30.6566C25.4736 33.1226 27.5283 35.1218 30.0628 35.1218Z" fill="#CC1D23"/>
<path d="M43.8285 35.1218C46.363 35.1218 48.4177 33.1226 48.4177 30.6566C48.4177 28.1905 46.363 26.1914 43.8285 26.1914C41.2939 26.1914 39.2393 28.1905 39.2393 30.6566C39.2393 33.1226 41.2939 35.1218 43.8285 35.1218Z" fill="#CC1D23"/>
<path d="M30.0627 48.6215C32.5972 48.6215 34.6518 46.6224 34.6518 44.1565C34.6518 41.6905 32.5972 39.6914 30.0627 39.6914C27.5282 39.6914 25.4736 41.6905 25.4736 44.1565C25.4736 46.6224 27.5282 48.6215 30.0627 48.6215Z" fill="#CC1D23"/>
<path d="M16.2961 48.6215C18.8306 48.6215 20.8852 46.6224 20.8852 44.1565C20.8852 41.6905 18.8306 39.6914 16.2961 39.6914C13.7616 39.6914 11.707 41.6905 11.707 44.1565C11.707 46.6224 13.7616 48.6215 16.2961 48.6215Z" fill="#CC1D23"/>
</g>
<defs>
<clipPath id="clip0_317_4">
<rect width="74" height="72" fill="white"/>
</clipPath>
</defs>
</svg>
