<svg width="58" height="60" viewBox="0 0 58 60" fill="none" xmlns="http://www.w3.org/2000/svg">
<path opacity="0.14" d="M33.8846 59.8674L5.20688 42.7995C4.97096 42.6679 4.89232 42.3518 5.0496 42.1411L28.1962 2.89553C28.3273 2.65848 28.6418 2.57946 28.8515 2.73749L57.5292 19.8317C57.7651 19.9634 57.8438 20.2795 57.6865 20.4902L34.5399 59.7357C34.4088 59.9464 34.1205 60.0254 33.8846 59.8674Z" fill="#434996"/>
<path d="M33.1502 58.3137L4.47251 41.2195C4.23658 41.0878 4.15794 40.7717 4.31523 40.561L27.4618 1.31545C27.5929 1.0784 27.9075 0.999379 28.1172 1.15741L56.7948 18.2516C57.0308 18.3833 57.1094 18.6994 56.9521 18.9101L33.8055 58.1556C33.6744 58.3663 33.3861 58.4454 33.1502 58.3137Z" fill="#B7DBF2"/>
<path opacity="0.14" d="M41.3809 57.8124L8.58772 51.7544C8.32558 51.7017 8.14209 51.4383 8.19451 51.1749L16.4256 6.31914C16.478 6.05575 16.7401 5.87137 17.0023 5.92405L49.7955 12.0084C50.0576 12.0611 50.2411 12.3245 50.1887 12.5879L41.9576 57.4437C41.9052 57.7071 41.6431 57.8651 41.3809 57.8124Z" fill="#434996"/>
<path d="M7.4154 50.3934L15.8226 4.57264L49.5666 10.8235L41.1594 56.6443L7.4154 50.3934Z" fill="white"/>
<path opacity="0.39" d="M40.6729 56.5751L7.87971 50.4907C7.61757 50.4381 7.43408 50.1747 7.48651 49.9113L15.7176 5.05547C15.77 4.79207 16.0321 4.6077 16.2943 4.66038L49.0875 10.7448C49.3496 10.7974 49.5331 11.0608 49.4807 11.3242L41.2496 56.18C41.1972 56.4434 40.935 56.6014 40.6729 56.5751Z" fill="#B6D9F2"/>
<path d="M44.4486 16.2226C44.4224 16.2226 44.4224 16.2226 44.3961 16.2226L36.1913 14.6949C36.0602 14.6686 35.9554 14.5369 35.9816 14.3788C36.0078 14.2471 36.1389 14.1418 36.2961 14.1681L44.501 15.6958C44.6321 15.7221 44.7369 15.8538 44.7107 16.0119C44.6845 16.1436 44.5796 16.2226 44.4486 16.2226Z" fill="white"/>
<path d="M43.9759 18.8574C43.9497 18.8574 43.9497 18.8574 43.9235 18.8574L35.7186 17.3297C35.5876 17.3033 35.4827 17.1716 35.5089 17.0136C35.5351 16.8819 35.6662 16.7766 35.8235 16.8029L44.0283 18.3306C44.1594 18.3569 44.2643 18.4886 44.2381 18.6466C44.2118 18.7783 44.107 18.8574 43.9759 18.8574Z" fill="white"/>
<path d="M43.4525 21.7275C43.4263 21.7275 43.4263 21.7275 43.4001 21.7275L35.1952 20.1998C35.0641 20.1735 34.9593 20.0418 34.9855 19.8837C35.0117 19.752 35.1428 19.6467 35.3001 19.673L43.5049 21.2007C43.636 21.227 43.7408 21.3587 43.7146 21.5168C43.6884 21.6485 43.5835 21.7275 43.4525 21.7275Z" fill="white"/>
<path opacity="0.14" d="M30.7386 24.1511L16.6881 21.5435C16.3998 21.4909 16.2163 21.2275 16.2687 20.9377L19.0473 5.73997C19.0998 5.45024 19.3619 5.26586 19.6502 5.31854L33.7269 7.92613C34.0153 7.97881 34.1988 8.2422 34.1464 8.53193L31.3677 23.7297C31.3153 24.0194 31.0269 24.2038 30.7386 24.1511Z" fill="#434996"/>
<path d="M30.2405 23.282L16.8453 20.8061C16.557 20.7534 16.3735 20.4901 16.4259 20.2003L19.0735 5.81907C19.1259 5.52934 19.3881 5.34496 19.6764 5.39764L33.0716 7.87353C33.3599 7.92621 33.5434 8.18961 33.491 8.47934L30.8434 22.8606C30.791 23.1503 30.5288 23.3347 30.2405 23.282Z" fill="#7098EE"/>
<path opacity="0.07" d="M33.2288 9.82261L18.7852 7.16235L19.0473 5.7927C19.0997 5.50297 19.3619 5.3186 19.6502 5.37127L33.0978 7.84717C33.3599 7.89985 33.5434 8.16324 33.491 8.42663L33.2288 9.82261Z" fill="#ECF0F5"/>
<path d="M22.8223 14.3002C22.7175 14.3002 22.6126 14.3002 22.5078 14.2739L22.2981 14.2476C21.2495 14.0632 20.5418 13.0359 20.7253 11.956L21.2233 9.21675C21.2757 9.00604 21.4592 8.848 21.6689 8.90068C21.8787 8.92702 22.0359 9.13773 21.9835 9.34845L21.4854 12.0877C21.3806 12.7199 21.8 13.352 22.4291 13.4574L22.6388 13.4837C23.1369 13.5891 23.6087 13.2467 23.6874 12.7462L24.9719 5.79264C25.0767 5.2922 24.7359 4.79175 24.2117 4.68639L23.8709 4.63372C23.3204 4.52836 22.7961 4.89711 22.7175 5.45023L22.6913 5.63461C22.6388 5.84532 22.4554 6.00336 22.2456 5.95068C22.0359 5.92434 21.8787 5.71363 21.9311 5.50291L21.9573 5.31854C22.1408 4.34398 23.0583 3.71184 24.0282 3.86988L24.3689 3.92256C25.3126 4.10693 25.9155 5.00247 25.7583 5.95068L24.4738 12.9043C24.3427 13.7208 23.635 14.3002 22.8223 14.3002Z" fill="#434996"/>
<path d="M24.2117 8.45281C24.1854 8.45281 24.1854 8.45281 24.2117 8.45281L18.9427 7.47825C18.8641 7.47825 18.8117 7.39923 18.8379 7.32022C18.8641 7.2412 18.9165 7.18852 18.9952 7.21486L24.2379 8.18941C24.3165 8.18941 24.3689 8.26843 24.3427 8.34745C24.3165 8.42647 24.2641 8.45281 24.2117 8.45281Z" fill="white"/>
<path d="M40.2276 35.688C40.2014 35.688 40.2014 35.688 40.1752 35.688L15.0888 31.026C14.9577 30.9996 14.8528 30.8679 14.879 30.7099C14.9053 30.5782 15.0363 30.4728 15.1936 30.4992L40.28 35.1349C40.4111 35.1612 40.5159 35.2929 40.4897 35.451C40.4635 35.5827 40.3324 35.688 40.2276 35.688Z" fill="white"/>
<path d="M38.419 45.4595C38.3928 45.4595 38.3928 45.4595 38.3666 45.4595L13.2802 40.8238C13.1491 40.7975 13.0442 40.6658 13.0704 40.5077C13.0967 40.376 13.2277 40.2707 13.385 40.297L38.4714 44.9327C38.6025 44.9591 38.7073 45.0908 38.6811 45.2488C38.6549 45.3542 38.5501 45.4595 38.419 45.4595Z" fill="white"/>
<path d="M26.0981 38.1106C26.0719 38.1106 26.0719 38.1106 26.0457 38.1106L14.1972 35.9244C14.0661 35.8981 13.9612 35.7664 13.9874 35.6083C14.0137 35.4766 14.1447 35.3713 14.302 35.3976L26.1505 37.5838C26.2816 37.6101 26.3865 37.7418 26.3603 37.8998C26.334 38.0315 26.2292 38.1106 26.0981 38.1106Z" fill="white"/>
<path d="M27.7241 29.2082C27.6979 29.2082 27.6979 29.2082 27.6717 29.2082L15.8231 27.0221C15.6921 26.9957 15.5872 26.864 15.6134 26.706C15.6396 26.5743 15.7707 26.4689 15.928 26.4953L27.7765 28.6814C27.9076 28.7078 28.0124 28.8395 27.9862 28.9975C27.96 29.1292 27.8552 29.2082 27.7241 29.2082Z" fill="white"/>
<path d="M39.3367 40.5345C39.3105 40.5345 39.3105 40.5345 39.2843 40.5345L27.9862 38.4537C27.8551 38.4274 27.7503 38.2957 27.7765 38.1376C27.8027 38.0059 27.9338 37.9006 28.0911 37.9269L39.3891 40.0077C39.5202 40.0341 39.625 40.1658 39.5988 40.3238C39.5726 40.4291 39.4678 40.5345 39.3367 40.5345Z" fill="white"/>
<circle opacity="0.21" cx="24.564" cy="23.9795" r="16.6981" transform="rotate(-45 24.564 23.9795)" fill="white"/>
<path opacity="0.76" d="M11.5888 25.175C11.0136 25.175 10.543 24.696 10.543 24.1105C10.543 15.6213 17.3407 8.70215 25.681 8.70215C26.2562 8.70215 26.7268 9.18116 26.7268 9.76663C26.7268 10.3521 26.2562 10.8311 25.681 10.8311C18.4911 10.8311 12.6346 16.7922 12.6346 24.1105C12.6346 24.696 12.164 25.175 11.5888 25.175Z" fill="white"/>
<path opacity="0.58" fill-rule="evenodd" clip-rule="evenodd" d="M7.48438 23.9773C7.48438 33.5576 15.1449 41.3549 24.5571 41.3549C33.9694 41.3549 41.6299 33.5576 41.6299 23.9773C41.6299 14.3969 33.9694 6.59961 24.5571 6.59961C15.1449 6.59961 7.48438 14.3969 7.48438 23.9773ZM8.53018 23.9773C8.53018 14.9824 15.7201 7.66409 24.5571 7.66409C33.3942 7.66409 40.5841 14.9824 40.5841 23.9773C40.5841 32.9721 33.3942 40.2904 24.5571 40.2904C15.7201 40.2904 8.53018 32.9721 8.53018 23.9773Z" fill="#434996"/>
<path fill-rule="evenodd" clip-rule="evenodd" d="M39.8517 35.9798C39.8256 35.9798 39.7994 36.0064 39.7733 36.033L38.5445 37.3104L36.3221 39.5724C33.0801 42.1272 29.0015 43.6441 24.583 43.6441C13.9158 43.6441 5.26172 34.8355 5.26172 23.9778C5.26172 13.1201 13.8896 4.31152 24.5568 4.31152C35.224 4.31152 43.8781 13.1201 43.8781 23.9778C43.8781 28.5018 42.3617 32.6533 39.8517 35.9798ZM8.00696 23.9778C8.00696 33.292 15.406 40.8232 24.5568 40.8232C33.7076 40.8232 41.1067 33.2654 41.1067 23.9778C41.1067 14.6636 33.7076 7.1324 24.5568 7.1324C15.406 7.1324 8.00696 14.6636 8.00696 23.9778Z" fill="#254099"/>
<path fill-rule="evenodd" clip-rule="evenodd" d="M4.97461 23.951C4.97461 34.9417 13.7594 43.8834 24.5573 43.8834C28.8974 43.8834 33.0283 42.4729 36.4795 39.7585L39.9568 36.2191C39.9568 36.2026 39.9668 36.1964 39.9806 36.1877C39.9891 36.1823 39.9991 36.176 40.0091 36.1659L40.0614 36.1126C42.7282 32.5999 44.14 28.3952 44.14 23.951C44.14 12.9602 35.3553 4.01855 24.5573 4.01855C13.7594 4.01855 4.97461 12.9602 4.97461 23.951ZM5.49751 23.9776C5.49751 13.2795 14.047 4.57741 24.5573 4.57741C35.0677 4.57741 43.6171 13.2795 43.6171 23.9776C43.6171 28.2887 42.2576 32.387 39.6692 35.7933L39.5908 35.8731L36.1396 39.3859C32.793 41.9939 28.7667 43.3777 24.5573 43.3777C14.047 43.3777 5.49751 34.6756 5.49751 23.9776ZM24.5573 41.0891C15.2758 41.0891 7.74599 33.4248 7.74599 23.9776C7.74599 14.5303 15.2758 6.86604 24.5573 6.86604C33.8388 6.86604 41.3686 14.5303 41.3686 23.9776C41.3686 33.4248 33.8388 41.0891 24.5573 41.0891ZM8.2689 23.9776C8.2689 14.823 15.5895 7.39828 24.5573 7.39828C33.5512 7.39828 40.8457 14.823 40.8457 23.9776C40.8457 33.1321 33.5251 40.5568 24.5573 40.5568C15.5634 40.5568 8.2689 33.1055 8.2689 23.9776Z" fill="#254099"/>
<path d="M39.3034 39.1194L38.5452 38.3477C38.2576 38.055 38.2576 37.5759 38.5452 37.2832L36.3229 39.5452L36.2968 39.5718C36.0092 39.8646 36.0092 40.3436 36.2968 40.6363L37.2118 41.5677C37.4733 41.0621 38.3622 40.0775 39.3034 39.1194Z" fill="#5565B5"/>
<path d="M38.5448 37.2834C38.2572 37.5761 38.2572 38.0551 38.5448 38.3478L39.303 39.1196C40.2181 38.1882 41.1593 37.31 41.6822 36.9374L40.8194 36.0592C40.558 35.7931 40.1397 35.7665 39.8521 36.006C39.8259 36.0326 39.7998 36.0592 39.7736 36.0592L38.5448 37.2834Z" fill="#5565B5"/>
<path opacity="0.43" d="M38.5448 37.2834C38.2572 37.5761 38.2572 38.0551 38.5448 38.3478L39.303 39.1196C40.2181 38.1882 41.1593 37.31 41.6822 36.9374L40.8194 36.0592C40.558 35.7931 40.1397 35.7665 39.8521 36.006C39.8259 36.0326 39.7998 36.0592 39.7736 36.0592L38.5448 37.2834Z" fill="#434996"/>
<path d="M55.6961 50.749L42.1006 36.751C42.0483 36.6978 41.8914 36.7777 41.6823 36.9107C41.1594 37.2833 40.192 38.1615 39.3031 39.0929C38.3618 40.0509 37.499 41.0622 37.1853 41.5678C37.0807 41.7275 37.0546 41.8606 37.0807 41.8872L50.6762 55.8851C52.0619 57.2955 54.3104 57.2955 55.6699 55.8851C57.0817 54.4746 57.0817 52.186 55.6961 50.749Z" fill="#4670BA"/>
<path opacity="0.14" d="M55.696 50.7489L42.1005 36.751C41.9175 36.5647 40.375 37.9752 39.0416 39.359C37.9173 40.5565 54.3103 57.2955 55.696 55.885C57.0817 54.4746 57.0817 52.186 55.696 50.7489Z" fill="#434996"/>
</svg>
