<svg width="94" height="69" viewBox="0 0 94 69" fill="none" xmlns="http://www.w3.org/2000/svg">
<g id="proceso exitoso">
<path id="Path" d="M92 50.0694L87.6527 48.429L86.5659 44L83.6399 47.5678L79 47.1987L81.5498 51.0126L79.7524 55.2366L84.2669 54.0473L87.7781 57L88.0289 52.4479L92 50.0694Z" fill="#FF3737"/>
<path id="Path_2" d="M64 1.19231L65.047 3.03846L64.0403 4.92308L66.2148 4.53846L67.745 6L68.0268 3.96154L70 3L68.0268 2.07692L67.6644 0L66.1745 1.53846L64 1.19231Z" fill="#FF3737"/>
<path id="Path_3" d="M70.9565 69L73.6522 67.3719L76.4783 68.7739L75.8261 65.608L78 63.2111L74.8696 62.8945L73.3913 60L72.087 62.9849L69 63.6181L71.3478 65.7889L70.9565 69Z" fill="#70E9FF"/>
<path id="Path_4" d="M10.2398 47L8.19298 48.375L5.90058 47.4583L6.55556 49.875L5 51.7917L7.45614 51.9167L8.76608 54L9.62573 51.6667L12 51.0417L10.076 49.5L10.2398 47Z" fill="#FF3737"/>
<path id="Path_5" d="M54.75 35L53.2845 35.9649L51.6466 35.307L52.1207 37.0175L51 38.4211L52.7672 38.4649L53.7155 40L54.319 38.3333L56 37.8947L54.6207 36.7544L54.75 35Z" fill="#FF3737"/>
<path id="Path_6" d="M85.5949 14L83.8308 16.5L81 16.3182L82.6 18.9545L81.5333 21.8636L84.2821 21L86.4974 23L86.5795 19.8636L89 18.1364L86.2923 17.0909L85.5949 14Z" fill="#2271BF"/>
<path id="Path_7" d="M15.0104 53.9776C14.6319 53.6845 24.6413 49.6242 33.6414 43.3035C41.2536 37.9455 49.5387 31.3737 55.2163 27.1041C67.2444 18.0206 80.324 6.38384 82.7632 9.52326C85.2025 12.6627 68.2117 23.3786 58.5808 29.8668C48.9079 36.313 15.9777 54.731 15.0104 53.9776Z" fill="#70E9FF"/>
<path id="Path_8" d="M36.0072 35.9384C35.7649 35.8542 41.6623 33.2453 45.944 28.6585C49.6198 24.8713 52.6493 19.9479 54.4266 16.5815C58.4255 9.42787 59.5565 0.633101 61.3742 1.01182C63.4343 1.34847 60.0412 11.574 56.527 17.0023C54.3054 23.2723 37.2594 37.0325 36.0072 35.9384Z" fill="#FF3737"/>
<path id="Path_9" d="M29.0031 58.145C28.9613 58.4008 34.2702 55.4168 40.3733 54.8626C45.4732 54.3085 51.2001 54.9053 54.9205 55.5447C63.0301 56.7383 71.0561 61.3848 71.934 59.5944C72.9372 57.5482 62.2776 53.9248 55.8401 53.4559C49.2772 51.4523 28.7105 56.6104 29.0031 58.145Z" fill="#1EE1C6"/>
<path id="Path_10" d="M23 53C23 53 76.5441 37.354 83.5119 35.891C90.5211 34.3873 88.1156 30.0796 84.4243 31.1768C80.7331 32.2334 38.8849 46.0101 23 53Z" fill="#2271BF"/>
<path id="Path_11" d="M53.5849 7.09553C53.0661 7.33904 52.8585 7.93043 53.1007 8.41745C53.3428 8.90447 53.9308 9.14798 54.4151 8.90447C54.9339 8.66096 55.1415 8.06957 54.8993 7.58255C54.6918 7.09553 54.1038 6.85202 53.5849 7.09553Z" fill="#1EE1C6"/>
<path id="Path_12" d="M52.5849 48.0953C52.0661 48.3381 51.8585 48.9278 52.1007 49.4134C52.3428 49.9337 52.9308 50.1419 53.4151 49.899C53.9339 49.6562 54.1415 49.0665 53.8993 48.5809C53.6918 48.0953 53.1038 47.8524 52.5849 48.0953Z" fill="#2271BF"/>
<path id="Path_13" d="M19.1797 43.2027C18.1771 43.6554 17.7213 44.8323 18.1771 45.8282C18.6328 46.8241 19.8177 47.2768 20.8203 46.8241C21.8229 46.3714 22.2787 45.1945 21.8229 44.1986C21.3672 43.1574 20.1823 42.7047 19.1797 43.2027Z" fill="#2271BF"/>
<path id="Path_14" d="M0.576314 54.0784C1.09307 53.8737 1.6615 54.0784 1.91988 54.5902C2.12658 55.1019 1.91988 55.6648 1.4548 55.9207C0.938042 56.1253 0.369612 55.9207 0.111235 55.4601C-0.147143 54.8972 0.0595592 54.2831 0.576314 54.0784Z" fill="#09B1BD"/>
<path id="Path_15" d="M44.5904 25.0993C45.1024 24.8462 45.6655 25.0993 45.9215 25.6055C46.1263 26.1116 45.9215 26.6684 45.4096 26.9215C44.8976 27.124 44.3345 26.9215 44.0785 26.466C43.8737 25.9092 44.0785 25.3524 44.5904 25.0993Z" fill="#09B1BD"/>
<path id="Path_16" d="M65.5809 12.0841C66.0776 11.8668 66.6675 12.0841 66.9159 12.5809C67.1332 13.0776 66.9159 13.6675 66.4191 13.9159C65.9224 14.1332 65.3325 13.9159 65.0841 13.4191C64.8668 12.9224 65.0841 12.3014 65.5809 12.0841Z" fill="#2271BF"/>
<path id="Path_17" d="M73.5763 25.0814C74.0931 24.8714 74.6615 25.0814 74.9199 25.5541C75.1266 26.0792 74.9199 26.6569 74.4548 26.9195C73.938 27.1296 73.3696 26.9195 73.1112 26.3943C72.8529 25.9217 73.0596 25.344 73.5763 25.0814Z" fill="#1EE1C6"/>
<path id="Path_18" d="M67.8814 29.1454C67.1231 29.5018 66.8038 30.3731 67.1231 31.1255C67.4823 31.8779 68.3603 32.1947 69.1186 31.8779C69.8769 31.5215 70.1962 30.6503 69.8769 29.8978C69.5177 29.1058 68.6397 28.789 67.8814 29.1454Z" fill="#FF3737"/>
<path id="Path_19" d="M63.5866 64.1035C63.0833 64.3169 62.8676 64.9216 63.0833 65.4196C63.299 65.9176 63.9101 66.131 64.4134 65.9176C64.9167 65.7042 65.1324 65.0995 64.9167 64.6015C64.6651 64.0679 64.0899 63.8545 63.5866 64.1035Z" fill="#FF3737"/>
<path id="Path_20" d="M19.5866 37.1035C19.0833 37.3169 18.8676 37.9216 19.0833 38.4196C19.299 38.9176 19.9101 39.131 20.4134 38.9176C20.9167 38.6686 21.1324 38.0995 20.9167 37.6015C20.6651 37.0679 20.0899 36.8545 19.5866 37.1035Z" fill="#FF3737"/>
<path id="Path_21" d="M82.5866 40.0833C82.0833 40.299 81.8676 40.9101 82.0833 41.4134C82.299 41.9167 82.9101 42.1324 83.4134 41.9167C83.9167 41.701 84.1324 41.0899 83.9167 40.5866C83.6651 40.0833 83.0899 39.8676 82.5866 40.0833Z" fill="#EE4783"/>
<path id="Path_22" d="M22.5866 57.0833C22.0833 57.299 21.8676 57.9101 22.0833 58.4134C22.299 58.9167 22.9101 59.1324 23.4134 58.9167C23.9167 58.701 24.1324 58.0899 23.9167 57.5866C23.701 57.0833 23.0899 56.8676 22.5866 57.0833Z" fill="#FF3737"/>
<path id="Path_23" d="M68.1746 47.1913C67.1841 47.6621 66.7125 48.839 67.1841 49.8276C67.6558 50.8162 68.8349 51.287 69.8254 50.8162C70.8159 50.3454 71.2875 49.1685 70.8159 48.1799C70.3914 47.1442 69.1651 46.7206 68.1746 47.1913Z" fill="#70E9FF"/>
<path id="Path_24" d="M27.5758 38.0854C27.073 38.3062 26.8531 38.9054 27.1044 39.41C27.3244 39.9146 27.9214 40.1353 28.4242 39.9146C28.927 39.6938 29.1469 39.0946 28.8956 38.59C28.6756 38.0854 28.0786 37.8647 27.5758 38.0854Z" fill="#70E9FF"/>
<path id="Path_25" d="M60.5844 18.099C60.073 18.3513 59.8812 18.9189 60.073 19.4235C60.3287 19.928 60.9041 20.1172 61.4156 19.928C61.927 19.6757 62.1188 19.1081 61.927 18.6035C61.7352 18.099 61.0959 17.8467 60.5844 18.099Z" fill="#70E9FF"/>
<path id="Path_26" d="M92.5866 41.0833C92.0833 41.299 91.8676 41.9101 92.0833 42.4134C92.299 42.9167 92.9101 43.1324 93.4134 42.9167C93.9167 42.701 94.1324 42.0899 93.9167 41.5866C93.6651 41.0833 93.0899 40.8676 92.5866 41.0833Z" fill="#1EE1C6"/>
<path id="Path_27" d="M35.2083 29L34.0833 31.9858L31 32.7536L33.4583 34.7583L33.2083 38L35.875 36.2085L38.75 37.4455L37.9583 34.3318L40 31.9005L36.8333 31.7299L35.2083 29Z" fill="#2271BF"/>
<path id="Path_28" d="M30.3047 54L29.6797 55.6667L28 56.1429L29.3672 57.2143L29.25 59L30.7344 58.0079L32.3359 58.6825L31.8672 56.9365L33 55.5873L31.2422 55.5079L30.3047 54Z" fill="#70E9FF"/>
</g>
</svg>
