<?xml version="1.0" encoding="UTF-8"?>
<svg width="24px" height="24px" viewBox="0 0 24 24" version="1.1" xmlns="http://www.w3.org/2000/svg" xmlns:xlink="http://www.w3.org/1999/xlink">
    <!-- Generator: Sketch 64 (93537) - https://sketch.com -->
    <title>registrar</title>
    <desc>Created with Sketch.</desc>
    <g id="MESA-DE-PARTES" stroke="none" stroke-width="1" fill="none" fill-rule="evenodd">
        <g transform="translate(-775.000000, -197.000000)" fill="#2271BF" fill-rule="nonzero" id="registrar-comprobante">
            <g transform="translate(640.000000, 181.000000)">
                <g id="registrar" transform="translate(135.000000, 16.000000)">
                    <path d="M5.01735757,19.5729084 C4.94090259,19.5824701 4.86444762,19.6111554 4.78799265,19.6111554 C3.70806616,19.6111554 2.62813968,19.6111554 1.54821319,19.6111554 C0.640310394,19.6111554 0.0382274862,18.9992032 0.0476722169,18.0908367 C0.0573412293,16.8478088 0.0764549724,15.6047809 0.0764549724,14.361753 C0.0668981009,10.1163347 0.0573412293,5.88047809 0.0573412293,1.63505976 C0.0573412293,1.36733068 0.105125587,1.08047809 0.200694303,0.841434263 C0.43005922,0.296414343 0.879232183,0.019123506 1.48131509,0.019123506 C5.36140494,0.019123506 9.23193792,0.019123506 13.1120278,0.019123506 C14.7940372,0.019123506 16.4760466,0.019123506 18.158056,0.019123506 C19.0755156,0.019123506 19.6584848,0.602390438 19.6584848,1.52988048 C19.6584848,5.2876494 19.6584848,9.05498008 19.6584848,12.812749 C19.6584848,13.1378486 19.6584848,13.4629482 19.6584848,13.8836653 C19.3526649,13.5681275 19.1137431,13.2717131 18.827037,13.0422311 C18.377864,12.6693227 18.2345109,12.2294821 18.2440678,11.6366534 C18.2727384,8.51952191 18.2631815,5.39282869 18.2631815,2.27569721 C18.2631815,1.62549801 18.0433735,1.39601594 17.3935062,1.39601594 C15.6923831,1.39601594 13.99126,1.39601594 12.2901368,1.39601594 C8.95478865,1.39601594 5.61944047,1.39601594 2.29364917,1.39601594 C1.68200939,1.39601594 1.45264448,1.62549801 1.45264448,2.2374502 C1.45264448,5.29721116 1.45264448,8.34741036 1.45264448,11.4071713 C1.45264448,13.3960159 1.45264448,15.3752988 1.45264448,17.3641434 C1.45264448,17.9952191 1.67245252,18.2151394 2.30320604,18.2151394 C2.67592404,18.2151394 3.04864203,18.2055777 3.43091689,18.2151394 C3.53604247,18.2151394 3.63161119,18.2629482 3.73673678,18.2820717 C4.14768225,18.7219124 4.57774147,19.1521912 5.01735757,19.5729084 Z" id="Path"></path>
                    <path d="M7.93220339,7.6876494 C8.23802328,7.76414343 8.50561568,7.81195219 8.76365122,7.88844622 C10.0347151,8.23266932 11.305779,8.58645418 12.5863998,8.93067729 C12.873106,9.00717131 13.092914,9.14103586 13.3031652,9.35139442 C15.8357362,11.9521912 18.3683071,14.552988 20.9008781,17.1537849 C20.9582193,17.2111554 21.0155605,17.2780876 21.0824586,17.3450199 C19.8400653,18.6262948 18.597672,19.898008 17.3839494,21.1410359 C16.8774352,20.6533865 16.370921,20.1848606 15.8930774,19.6972112 C13.7236676,17.4788845 11.5542577,15.2605578 9.40396161,13.0326693 C9.27016541,12.8988048 9.20326731,12.6693227 9.15548295,12.4780876 C8.75409434,10.9577689 8.35270574,9.42788845 7.960874,7.89800797 C7.93220339,7.8501992 7.93220339,7.80239044 7.93220339,7.6876494 Z M10.6559118,11.5984064 C10.5507862,11.6844622 10.4074331,11.7322709 10.3692056,11.8374502 C10.3214213,11.9426295 10.3500919,12.1051793 10.3883194,12.2199203 C10.4265469,12.3155378 10.5221156,12.3824701 10.5985706,12.4685259 C12.2519093,14.1609562 13.914805,15.8629482 15.5681438,17.5553785 C16.0842148,18.0812749 16.6002859,18.6167331 17.1259138,19.1426295 C17.3170513,19.3434263 17.5081887,19.3434263 17.6706555,19.161753 C17.8331223,18.9800797 17.8044517,18.7984064 17.6419849,18.6262948 C17.5942005,18.5689243 17.5464162,18.5211155 17.4890749,18.463745 C16.4951603,17.4406375 15.4916888,16.4175299 14.4882173,15.3944223 C13.3127221,14.1896414 12.1467837,12.9944223 10.9712885,11.7896414 C10.9043904,11.7131474 10.789708,11.6653386 10.6559118,11.5984064 Z M19.2762099,17.4310757 C19.1710843,17.2876494 19.1041862,17.1537849 19.0086175,17.0581673 C18.4829896,16.5035857 17.9382479,15.9585657 17.4030631,15.4135458 C15.7497243,13.7211155 14.0963855,12.0286853 12.4430468,10.336255 C12.2423525,10.1258964 12.0225444,10.0972112 11.8696345,10.2501992 C11.7071677,10.4223108 11.7167245,10.6422311 11.9269757,10.8525896 C12.8157648,11.7705179 13.7141107,12.6788845 14.6028997,13.587251 C15.4821319,14.4956175 16.3613641,15.4135458 17.2501532,16.3219124 C17.6897692,16.7713147 18.1293853,17.2207171 18.5881152,17.650996 C18.674127,17.7370518 18.8748213,17.7657371 18.9990606,17.7370518 C19.1041862,17.7179283 19.1710843,17.5553785 19.2762099,17.4310757 Z" id="Shape"></path>
                    <path d="M18.081601,22.0972112 C19.4100061,20.7298805 20.6428426,19.4677291 21.875679,18.2055777 C22.248397,18.5689243 22.6020012,18.9131474 22.9556055,19.2573705 C23.0798448,19.3816733 23.1849704,19.5155378 23.3187666,19.6302789 C23.9686339,20.1561753 23.9112926,21.2175299 23.3569941,21.7912351 C22.7931387,22.3649402 22.248397,22.9482072 21.6749847,23.5123506 C21.1206861,24.0669323 20.1936696,24.1721116 19.5342455,23.4549801 C19.1041862,22.9864542 18.5881152,22.5657371 18.081601,22.0972112 Z" id="Path"></path>
                    <path d="M9.83402083,5.40239044 C8.00865836,5.40239044 6.1832959,5.40239044 4.35793343,5.40239044 C4.0998979,5.40239044 3.87053298,5.35458167 3.71762303,5.11553785 C3.47870125,4.72350598 3.70806616,4.22629482 4.166796,4.15936255 C4.25280784,4.1498008 4.34837656,4.1498008 4.44394527,4.1498008 C8.07555646,4.1498008 11.7167245,4.1498008 15.3483357,4.1498008 C15.7975087,4.1498008 16.074658,4.38884462 16.074658,4.79043825 C16.0651011,5.15378486 15.7879518,5.39282869 15.3483357,5.39282869 C13.5038595,5.40239044 11.6689402,5.40239044 9.83402083,5.40239044 Z" id="Path"></path>
                    <path d="M5.01735757,19.5729084 C4.58729835,19.1426295 4.14768225,18.7219124 3.71762303,18.2916335 C3.78452114,18.27251 3.85141924,18.2247012 3.92787421,18.2247012 C6.72803757,18.2247012 9.51864407,18.2151394 12.3188074,18.2247012 C12.4048193,18.2247012 12.5195017,18.2342629 12.5672861,18.2916335 C12.9877884,18.7123506 13.3987339,19.1330677 13.83835,19.5920319 C13.7141107,19.6015936 13.6376557,19.6015936 13.5612007,19.6015936 C10.8279355,19.6015936 8.09467021,19.6015936 5.36140494,19.6015936 C5.24672248,19.6111554 5.13204002,19.5920319 5.01735757,19.5729084 Z" id="Path"></path>
                    <path d="M9.83402083,15.0119522 C8.26669389,15.0119522 6.77582193,15.0119522 5.29450684,15.0119522 C4.96001634,15.0119522 4.61596896,15.0119522 4.28147846,15.0119522 C3.89920359,15.0119522 3.61249745,14.7442231 3.61249745,14.4 C3.61249745,14.0462151 3.88964672,13.7689243 4.26236471,13.7689243 C5.65766796,13.7593625 7.05297121,13.7689243 8.44827445,13.7689243 C8.52472943,13.7689243 8.62029814,13.7880478 8.6680825,13.8358566 C9.05035736,14.2087649 9.41351848,14.5816733 9.83402083,15.0119522 Z" id="Path"></path>
                    <path d="M7.44480294,10.2023904 C6.94784562,10.2023904 6.5177864,10.2023904 6.07817031,10.2023904 C5.4760874,10.2023904 4.87400449,10.2119522 4.27192158,10.2023904 C3.88008985,10.1928287 3.60294058,9.9250996 3.60294058,9.56175299 C3.60294058,9.22709163 3.90876047,8.9689243 4.28147846,8.9689243 C5.1415969,8.9689243 5.99215846,8.9689243 6.8522769,8.95936255 C7.07208495,8.95936255 7.15809679,9.02629482 7.19632428,9.23665339 C7.26322238,9.54262948 7.3587911,9.84860558 7.44480294,10.2023904 Z" id="Path"></path>
                    <path d="M14.4786604,8.9689243 C14.8322647,8.9689243 15.1858689,8.9498008 15.5299163,8.97848606 C15.8070656,8.99760956 16.0077599,9.20796813 16.0555442,9.48525896 C16.1033286,9.73386454 15.9790892,10.0111554 15.7497243,10.1258964 C15.6828262,10.1545817 15.5585869,10.1545817 15.5108025,10.1163347 C15.1380845,9.78167331 14.7749234,9.42788845 14.4022054,9.07410359 C14.430876,9.03585657 14.4499898,9.00717131 14.4786604,8.9689243 Z" id="Path"></path>
                </g>
            </g>
        </g>
    </g>
</svg>