<?xml version="1.0" encoding="UTF-8"?>
<svg width="21px" height="22px" viewBox="0 0 21 22" version="1.1" xmlns="http://www.w3.org/2000/svg" xmlns:xlink="http://www.w3.org/1999/xlink">
    <!-- Generator: Sketch 64 (93537) - https://sketch.com -->
    <title>contabilidad inactivo</title>
    <desc>Created with Sketch.</desc>
    <g id="Page-1" stroke="none" stroke-width="1" fill="none" fill-rule="evenodd">
        <g id="VENTAS-INICIO-todo-comprobante-emitidos" transform="translate(-39.000000, -568.000000)" fill="#01387B" fill-rule="nonzero">
            <g id="contabilidad-inactivo" transform="translate(39.000000, 568.000000)">
                <path d="M13.7875862,0.0868421053 C14.0048276,0.0868421053 14.1786207,0.159210526 14.3234483,0.303947368 C15.902069,1.85263158 17.5096552,3.41578947 19.1027586,4.96447368 C19.262069,5.12368421 19.3344828,5.29736842 19.3344828,5.51447368 L19.3344828,8.30789474 C19.3344828,8.36217105 19.3426293,8.39202303 19.3711422,8.421875 L19.4068966,8.45263158 C20.3917241,9.30657895 20.9710345,10.5657895 20.9855172,11.8828947 C21,13.2 20.4496552,14.4736842 19.4793103,15.3421053 C19.377931,15.4289474 19.3489655,15.5013158 19.3489655,15.6460526 L19.3489655,16.3263158 C19.3634483,17.1657895 19.3634483,18.0197368 19.3344828,18.8592105 C19.3055172,19.7855263 18.957931,20.6105263 18.3351724,21.1605263 C17.8137931,21.6671053 17.1041379,21.9276316 16.3510345,21.9276316 C16.2641379,21.9276316 16.1917241,21.9276316 16.1048276,21.9131579 C15.9889655,21.8986842 15.8731034,21.9131579 15.7427586,21.9131579 L3.12827586,21.9131579 C1.94068966,21.9131579 1.04275862,21.3776316 0.463448276,20.3065789 C0.246206897,19.9157895 0.144827586,19.4815789 0.130344828,19.0039474 C0.130344828,18.8302632 0.173793103,18.7 0.260689655,18.6131579 C0.347586207,18.5263158 0.477931034,18.4684211 0.651724138,18.4684211 L2.65034483,18.4684211 L2.65034483,0.680263158 C2.65034483,0.246052632 2.80965517,0.0868421053 3.24413793,0.0868421053 L13.7875862,0.0868421053 Z M13.44,1.08552632 L3.63517241,1.08552632 L3.63517241,18.4973684 L13.7875862,18.4973684 C14.1931034,18.4973684 14.3524138,18.6565789 14.3668966,19.0618421 C14.4103448,20.0460526 15.1924138,20.8855263 16.1482759,20.9723684 C17.1910345,21.0592105 18.1034483,20.4078947 18.3062069,19.4092105 C18.3641379,19.1631579 18.3931034,18.9026316 18.3931034,18.6421053 C18.4075862,18.0342105 18.3931034,17.4118421 18.3931034,16.8039474 L18.3931034,16.1236842 C17.4082759,16.5868421 16.3944828,16.7026316 15.3806897,16.4855263 C14.2510345,16.2394737 13.3386207,15.6460526 12.6434483,14.7197368 C11.4413793,13.0986842 11.397931,10.9710526 12.5131034,9.40789474 C13.9758621,7.36710526 15.9455172,6.81710526 18.3931034,7.77236842 L18.3931034,6.02105263 L14.0337931,6.02105263 C13.6137931,6.02105263 13.44,5.84736842 13.44,5.44210526 L13.44,1.08552632 Z M13.4544828,19.4526316 L1.15862069,19.4526316 C1.15862069,19.4815789 1.17310345,19.4960526 1.17310345,19.5105263 C1.4337931,20.3934211 2.18689655,20.9578947 3.1137931,20.9578947 L14.1931034,20.9578947 C13.802069,20.5236842 13.5558621,20.0315789 13.4544828,19.4526316 Z M16.383,8.351 L16.38,8.351 L16.38,8.40921053 C15.4386207,8.40921053 14.5551724,8.77105263 13.8744828,9.43684211 C13.1937931,10.1026316 12.8317241,10.9855263 12.8172414,11.9263158 C12.8172414,12.8815789 13.1793103,13.7644737 13.8455172,14.4447368 C14.5117241,15.125 15.3951724,15.4868421 16.3365517,15.5013158 C17.2924138,15.5013158 18.1903448,15.1394737 18.8565517,14.4736842 C19.5372414,13.8078947 19.8993103,12.925 19.9137931,11.9842105 C19.9282759,10.0302632 18.3496552,8.42368421 16.3944828,8.40921053 L16.383,8.351 Z M10.7172414,13.8368421 L10.8258621,13.838736 L10.9344828,13.8519936 C11.1806897,13.8974482 11.34,14.1095694 11.3255172,14.3671451 C11.3110345,14.6247209 11.1372414,14.8065391 10.8910345,14.8368421 L5.7062069,14.8368421 C5.47448276,14.8065391 5.30068966,14.6095694 5.2862069,14.3822967 C5.27172414,14.1398724 5.41655172,13.9277512 5.6337931,13.8671451 C5.72068966,13.8368421 5.80758621,13.8368421 5.88,13.8368421 L10.7172414,13.8368421 Z M16.7855172,9.16184211 L16.7855172,9.78421053 L17.697931,10.0302632 L17.4082759,10.7973684 L17.2634483,10.725 C16.9882759,10.5802632 16.7275862,10.5078947 16.4524138,10.5223684 C16.1917241,10.5368421 16.0468966,10.6236842 15.9744828,10.8118421 C15.902069,10.9855263 15.96,11.1447368 16.1048276,11.2460526 C16.2206897,11.3328947 16.3510345,11.3907895 16.4813793,11.4631579 L16.6262069,11.5355263 L16.6262069,11.5355263 C16.6841379,11.5644737 16.7565517,11.5934211 16.8144828,11.6223684 C16.9303448,11.6802632 17.0606897,11.7381579 17.1765517,11.8105263 C17.64,12.1 17.8282759,12.5342105 17.7413793,13.0697368 C17.6544828,13.5763158 17.3503448,13.9236842 16.8289655,14.0684211 C16.7131034,14.0973684 16.7131034,14.1118421 16.7275862,14.2131579 C16.742069,14.3144737 16.742069,14.4157895 16.7275862,14.5171053 L16.7275862,14.7631579 L16.0468966,14.7631579 L16.0468966,14.1118421 C15.7282759,14.0684211 15.3951724,14.0105263 15.1055172,13.8078947 L15.0186207,13.75 L15.2648276,13.0552632 L15.4096552,13.1421053 C15.7282759,13.3302632 15.9889655,13.4026316 16.2496552,13.3881579 C16.38,13.3736842 16.5537931,13.3592105 16.6986207,13.2723684 C16.8289655,13.2 16.9013793,13.0842105 16.9158621,12.9394737 C16.9303448,12.7947368 16.8868966,12.6644737 16.7855172,12.5776316 C16.6696552,12.4763158 16.5103448,12.3894737 16.3655172,12.3171053 C16.322069,12.3026316 16.2786207,12.2736842 16.2496552,12.2592105 C16.1772414,12.2157895 16.0903448,12.1723684 16.017931,12.1434211 C15.9165517,12.1 15.8151724,12.0421053 15.7137931,11.9842105 C15.2648276,11.7236842 15.062069,11.3184211 15.1344828,10.8407895 C15.2068966,10.3486842 15.4965517,10.0157895 15.9889655,9.88552632 C16.1193103,9.84210526 16.1193103,9.82763158 16.1048276,9.72631579 C16.0903448,9.625 16.0903448,9.53815789 16.1048276,9.43684211 L16.1048276,9.16184211 L16.7855172,9.16184211 Z M10.8186207,11.3473684 C11.1227586,11.3473684 11.3255172,11.5563236 11.34,11.8399057 C11.34,11.9742341 11.2965517,12.0936371 11.2096552,12.1831893 C11.1082759,12.2876669 10.977931,12.332443 10.8186207,12.332443 L8.38551724,12.332443 L7.00965517,12.3473684 L5.80758621,12.3473684 C5.57586207,12.3473684 5.40206897,12.2279654 5.32965517,12.0040848 C5.25724138,11.7951296 5.32965517,11.5861744 5.48896552,11.4667714 C5.57586207,11.4070699 5.7062069,11.3622938 5.82206897,11.3622938 C6.64758621,11.3622938 7.50206897,11.3473684 8.24068966,11.3473684 L10.8186207,11.3473684 Z M10.7896552,9.00263158 C10.837931,9.00263158 10.8926437,9.00263158 10.9495019,9.01161025 L11.0358621,9.03293461 C11.2386207,9.09354067 11.3834483,9.30566188 11.3689655,9.53293461 C11.3544828,9.76020734 11.1951724,9.94202552 10.977931,9.98748006 C10.92,10.0026316 10.862069,10.0026316 10.8041379,10.0026316 L5.86551724,10.0026316 C5.82206897,10.0026316 5.76413793,10.0026316 5.72068966,9.98748006 C5.48896552,9.95717703 5.32965517,9.74505582 5.32965517,9.50263158 C5.32965517,9.24505582 5.48896552,9.04808612 5.72068966,9.01778309 C5.77862069,9.00263158 5.83655172,9.00263158 5.89448276,9.00263158 L10.7896552,9.00263158 Z M14.757931,6.35394737 C14.9751724,6.3842504 15.1489655,6.56606858 15.1634483,6.80849282 C15.177931,7.05091707 15.0475862,7.26303828 14.8303448,7.32364434 C14.7434483,7.35394737 14.6565517,7.35394737 14.5841379,7.35394737 L5.95241379,7.35394737 C5.90413793,7.35394737 5.84942529,7.35394737 5.79256705,7.34496869 L5.7062069,7.32364434 C5.48896552,7.26303828 5.35862069,7.05091707 5.37310345,6.80849282 C5.38758621,6.56606858 5.56137931,6.3842504 5.77862069,6.35394737 L14.757931,6.35394737 Z M14.4103448,1.72236842 L14.4103448,5.05131579 L17.8137931,5.05131579 L14.4103448,1.72236842 Z" id="Combined-Shape"></path>
            </g>
        </g>
    </g>
</svg>