<?xml version="1.0" encoding="UTF-8"?>
<svg width="18px" height="18px" viewBox="0 0 18 18" version="1.1" xmlns="http://www.w3.org/2000/svg" xmlns:xlink="http://www.w3.org/1999/xlink">
    <title>descarga blanco</title>
    <g id="Page-1" stroke="none" stroke-width="1" fill="none" fill-rule="evenodd">
        <g id="VENTAS-INICIO-comprobante-emitidos-detalle-seleccion" transform="translate(-1190.000000, -1212.000000)" fill="#FFFFFF" fill-rule="nonzero">
            <g id="Group-3-Copy-12" transform="translate(1167.000000, 1203.000000)">
                <g id="descarga-blanco" transform="translate(32.000000, 18.000000) scale(-1, 1) translate(-32.000000, -18.000000) translate(23.000000, 9.000000)">
                    <path d="M2.24424837,15.8491439 C6.74610374,15.8491439 11.2346005,15.8491439 15.7498145,15.8491439 C15.7498145,15.7979389 15.7498145,15.746734 15.7498145,15.7083302 C15.7498145,14.6842307 15.7498145,13.6601311 15.7498145,12.6360316 C15.7498145,12.0087706 16.2440835,11.5479258 16.8852973,11.5351245 C17.4730766,11.5351245 17.9807042,12.0087706 17.9940628,12.5720253 C18.0074215,12.9688639 17.9940628,13.3657025 17.9940628,13.7753423 C17.9940628,14.8250444 17.9940628,15.8875476 17.9940628,16.9372497 C17.9940628,17.5261069 17.4864352,18.0125542 16.8452214,17.999753 C14.6811248,17.999753 12.5170281,17.999753 10.3662901,17.999753 C7.94837965,17.999753 5.51711058,17.999753 3.09920013,17.999753 C2.44462769,17.999753 1.80341387,17.999753 1.14884143,17.999753 C0.561062093,17.999753 0.120227591,17.6413181 0.0133586213,17.1036659 C0,17.0396596 0,16.9756534 0,16.9116472 C0,15.4779078 0,14.0313672 0,12.5976278 C0,12.1111805 0.333965531,11.7015407 0.814875897,11.560727 C1.29578626,11.4327146 1.80341387,11.611932 2.08394492,12.0215718 C2.21753113,12.2135905 2.25760699,12.4184104 2.25760699,12.6488328 C2.25760699,13.6601311 2.25760699,14.6586282 2.25760699,15.6699265 C2.24424837,15.746734 2.24424837,15.7851377 2.24424837,15.8491439 Z" id="Path"></path>
                    <path d="M7.91713237,9.77857233 C7.91713237,9.68382987 7.91713237,9.62969133 7.91713237,9.56201814 C7.91713237,6.77388294 7.91713237,3.98574773 7.91713237,1.21114717 C7.91713237,0.764504149 8.07097228,0.399068952 8.44275205,0.168980124 C9.12221164,-0.277662894 10.0324311,0.209584035 10.0708911,1.06226616 C10.096531,1.45477063 10.0837111,1.83374046 10.0837111,2.22624493 C10.0837111,4.68954885 10.0837111,7.16638741 10.0837111,9.62969133 C10.0837111,9.67029524 10.0837111,9.71089915 10.0837111,9.75150306 C10.096531,9.76503769 10.122171,9.77857233 10.134991,9.79210697 C10.160631,9.75150306 10.160631,9.69736451 10.199091,9.67029524 C10.9811105,8.84468238 11.76313,8.0055349 12.5579695,7.17992204 C13.1220492,6.58439802 14.0579086,6.80095221 14.3271285,7.58596115 C14.4809684,8.04613881 14.3912284,8.46571255 14.0579086,8.80407847 C13.3528091,9.5484835 12.6605295,10.2928885 11.9554299,11.0237589 C11.2375103,11.7816986 10.5195908,12.5396383 9.80167122,13.2975779 C9.32733151,13.7983595 8.69915189,13.8118941 8.21199219,13.3111126 C8.08379227,13.1893008 7.95559235,13.0539545 7.84021242,12.9186081 C6.84025303,11.8629064 5.82747364,10.7936701 4.82751425,9.73796842 C4.51983444,9.41313713 4.22497462,9.10184049 3.91729481,8.7770092 C3.49423506,8.31683154 3.49423506,7.59949579 3.91729481,7.15285277 C4.34035455,6.70620975 5.00699414,6.70620975 5.44287388,7.16638741 C6.2248934,7.99200026 7.00691292,8.81761311 7.80175244,9.64322596 C7.82739242,9.68382987 7.8658524,9.71089915 7.91713237,9.77857233 Z" id="Path"></path>
                </g>
            </g>
        </g>
    </g>
</svg>