<?xml version="1.0" encoding="UTF-8"?>
<svg width="17px" height="18px" viewBox="0 0 17 18" version="1.1" xmlns="http://www.w3.org/2000/svg" xmlns:xlink="http://www.w3.org/1999/xlink">
    <!-- Generator: Sketch 64 (93537) - https://sketch.com -->
    <title>editar inactivo</title>
    <desc>Created with Sketch.</desc>
    <g id="Page-1" stroke="none" stroke-width="1" fill="none" fill-rule="evenodd">
        <g id="VENTAS-INICIO-comprobante-generados-detalle" transform="translate(-556.000000, -1431.000000)" fill="#6A7183" fill-rule="nonzero">
            <g id="editar-fecha" transform="translate(350.000000, 1415.000000)">
                <g id="editar-inactivo" transform="translate(206.000000, 16.000000)">
                    <path d="M5.9067042,16.2692491 C7.88282966,16.2692491 9.76661281,16.2692491 11.6411617,16.2692491 C11.7796752,16.2692491 11.9551256,16.2235041 12.0474679,16.2875471 C12.250621,16.4339312 12.490711,16.6169112 12.5645848,16.8273383 C12.6661614,17.1292554 12.4630083,17.3854275 12.1398102,17.4769175 C11.9920625,17.5135135 11.8350806,17.5135135 11.6873329,17.5135135 C8.11368544,17.5135135 4.54927223,17.5135135 0.975624786,17.5135135 C0.163012447,17.5135135 0.00603051828,17.3488315 0.00603051828,16.5528682 C0.00603051828,15.4824349 -0.012437944,14.4211506 0.0152647494,13.3507173 C0.0244989805,13.0853962 0.135309754,12.7651811 0.310760145,12.582201 C4.20760568,8.49259681 8.12291967,4.41214158 12.0382337,0.331686356 C12.4630083,-0.116614779 12.7492695,-0.107465776 13.2017468,0.340835359 C14.3467914,1.4753117 15.4918361,2.60063904 16.6276465,3.73511538 C17.1632319,4.26575754 17.1539977,4.4853336 16.6368808,5.03427377 C13.1371072,8.68472586 9.63733357,12.326029 6.14679421,15.9764811 C6.08215459,16.0588221 6.02674921,16.1228651 5.9067042,16.2692491 Z M10.2467928,4.05533047 C10.2467928,4.05533047 10.2098559,4.06447948 10.1913874,4.08277748 C7.27337041,7.12024639 4.35535337,10.1577153 1.44657057,13.2043332 C1.37269672,13.2775252 1.28035441,13.3781643 1.28035441,13.4696543 C1.27112018,14.3937036 1.27112018,15.3177529 1.27112018,16.2783981 C2.11143521,16.2783981 2.89634486,16.2601001 3.6812545,16.2875471 C3.99521836,16.2966961 4.21683991,16.2052061 4.43846146,15.9764811 C6.97787501,13.3141213 9.5265228,10.6609105 12.0659364,8.00769966 C12.4260714,7.63259055 12.7769722,7.25748143 13.1186387,6.90067033 C12.1398102,5.93087604 11.1979186,4.99767776 10.2467928,4.05533047 Z M11.1979186,3.03064217 C12.1859814,4.00958546 13.1186387,4.95193274 14.0789987,5.90342903 C14.5314761,5.42768089 15.0024219,4.93363474 15.4548992,4.4761846 C14.4853049,3.50639031 13.5434133,2.56404303 12.5738191,1.60339774 C12.1121075,2.06999688 11.6411617,2.56404303 11.1979186,3.03064217 Z" id="Shape"></path>
                    <path d="M14.5921602,17.3320203 C14.5601044,17.7085127 14.1968056,18.0204637 13.8228215,17.9989498 C13.4167817,17.9774359 13.0962239,17.5901865 13.1389649,17.2029371 C13.181706,16.7941738 13.5450048,16.4929799 13.9617299,16.5467645 C14.335714,16.5897922 14.624216,16.9555278 14.5921602,17.3320203 Z" id="Path"></path>
                    <path d="M15.805403,17.9997393 C15.3947425,17.9997393 15.0705367,17.6563984 15.0813436,17.2379517 C15.0921504,16.8409638 15.4163562,16.5405405 15.8162099,16.5405405 C16.2376773,16.5405405 16.5510762,16.873152 16.5402694,17.3023281 C16.5186556,17.6885866 16.1944499,18.0104687 15.805403,17.9997393 Z" id="Path"></path>
                </g>
            </g>
        </g>
    </g>
</svg>