<svg width="60" height="59" viewBox="0 0 60 59" fill="none" xmlns="http://www.w3.org/2000/svg">
<path id="error" fill-rule="evenodd" clip-rule="evenodd" d="M60 53.6487V54.7044C59.9817 54.7226 59.9725 54.7499 59.9633 54.7772C59.9541 54.8045 59.945 54.8318 59.9266 54.85C59.7431 56.3062 58.9724 57.3983 57.6879 58.1263C56.5135 58.818 55.1923 59 53.8344 59H6.08806C5.09717 59 4.14298 58.8908 3.22548 58.5632C1.57399 57.9443 0.436301 56.8886 0.106003 55.1413C-0.150895 53.8307 0.0693031 52.5566 0.656499 51.3917C1.31973 50.0272 2.03228 48.6628 2.73914 47.3092L2.7392 47.3091C3.0884 46.6404 3.4362 45.9744 3.77598 45.3124C4.89526 43.1829 6.00537 41.0534 7.11548 38.9239L7.11566 38.9236L7.11638 38.9222C8.2263 36.7931 9.33623 34.6639 10.4553 32.5348C11.2758 30.9626 12.0963 29.3881 12.9173 27.8124L12.9182 27.8108C15.3288 23.1846 17.7446 18.5485 20.1808 13.9327C21.0799 12.2036 21.9882 10.4653 22.8965 8.72705L22.8977 8.7248C23.8056 6.98729 24.7136 5.24978 25.6123 3.52136C26.0894 2.61128 26.6399 1.774 27.4106 1.08234C28.9153 -0.264584 30.7136 -0.373794 32.2917 0.863918C33.1358 1.48277 33.723 2.32005 34.2001 3.23013L34.2005 3.23101C35.8886 6.47061 37.5766 9.71021 39.3013 12.9498L39.3014 12.95L39.3015 12.9502C41.2466 16.6996 43.1916 20.449 45.1733 24.162C47.4487 28.494 49.7241 32.8624 51.9628 37.1944C52.8986 38.9964 53.8344 40.7892 54.7703 42.5821C55.7061 44.375 56.642 46.1678 57.5778 47.9698C57.7797 48.3702 57.9907 48.7707 58.2017 49.1711C58.4127 49.5715 58.6238 49.972 58.8256 50.3724C59.4495 51.3917 59.8165 52.4838 60 53.6487ZM33 28.0197V18.4471C33 18.2296 33 17.9758 32.9636 17.7582C32.8182 15.6914 30.6 14.3861 28.7455 15.2926C27.5455 15.8727 27 16.888 27 18.2296V37.8097C27 37.991 27 38.1723 27.0364 38.3536C27.1455 39.4777 27.9818 40.5292 29.0364 40.8555C30.2364 41.2181 31.5091 40.8918 32.2727 39.949C32.8182 39.2964 32.9636 38.5349 32.9636 37.7009C33 34.5101 33 31.2468 33 28.0197ZM34 48.5343C34 50.4556 32.3874 52.0338 30.466 51.9995C28.4759 51.9651 26.9663 50.387 27.0006 48.3971C27.0006 46.5444 28.6475 44.9662 30.5346 45.0005C32.4903 45.0349 34 46.5787 34 48.5343Z" fill="#FF3737"/>
</svg>
