<?xml version="1.0" encoding="UTF-8"?>
<svg width="117px" height="80px" viewBox="0 0 117 80" version="1.1" xmlns="http://www.w3.org/2000/svg" xmlns:xlink="http://www.w3.org/1999/xlink">
    <!-- Generator: Sketch 64 (93537) - https://sketch.com -->
    <title>LOGOTIPO RED SALUD (1)</title>
    <desc>Created with Sketch.</desc>
    <g id="Page-1" stroke="none" stroke-width="1" fill="none" fill-rule="evenodd">
        <g id="VENTAS-INICIO-todo-comprobante-emitidos" transform="translate(-80.000000, -30.000000)" fill-rule="nonzero">
            <g id="LOGOTIPO-RED-SALUD-(1)" transform="translate(80.000000, 30.000000)">
                <path d="M111.120879,2.57875458 L106.227106,2.57875458 L103.179487,17.3479853 C101.245421,14.3003663 97.992674,12.5128205 93.7728938,12.5128205 C84.0732601,12.5128205 77.0695971,21.8608059 77.0695971,31.7069597 C77.0695971,39.0622711 81.4945055,44.0732601 88.6153846,44.0732601 C92.3663004,44.0732601 95.6776557,42.6666667 98.3736264,40.3223443 L97.7289377,43.3699634 L108.981685,43.3699634 L116.161172,8.82051282 C116.893773,5.5970696 114.432234,2.57875458 111.120879,2.57875458 M100.21978,29.8901099 C100.278388,29.7728938 100.307692,29.6556777 100.3663,29.5677656 C98.989011,32.4395604 96.0879121,34.7545788 92.7472527,34.7545788 C89.6410256,34.7545788 87.8534799,33.1135531 87.8534799,30.5054945 C87.8534799,27.8388278 89.3186813,25.2893773 91.5164835,23.6776557 C91.8681319,23.3260073 92.4249084,22.8278388 92.7472527,22.5641026 C95.9120879,20.2197802 99.8974359,20.1904762 101.626374,22.5347985 C103.091575,24.4688645 102.358974,27.5750916 100.21978,29.8901099" id="Shape" fill="#01387B"></path>
                <path d="M91.5268805,23.664515 C93.05069,22.5509619 94.9157509,21.8315018 96.9084249,21.8315018 C99.6043956,21.8315018 101.216117,23.4139194 101.216117,25.96337 C101.216117,27.1648352 100.893773,28.3956044 100.3663,29.5384615 C100.252127,29.8021978 100.270773,29.7691664 100.21978,29.8901099 C102.391285,27.9034026 103.091575,24.4688645 101.626374,22.4761905 C99.8974359,20.1611722 95.9120879,20.1904762 92.7472527,22.5347985 C92.3956044,22.7985348 91.8492248,23.3128667 91.5268805,23.664515 Z" id="Path" fill="#2271BF"></path>
                <path d="M59.8974359,30.9450549 L53.8315018,30.9450549 C53.8315018,33.8754579 55.4725275,35.6630037 58.1978022,35.6630037 C59.3992674,35.6630037 60.6007326,35.4285714 61.7728938,35.018315 C64.4688645,34.0805861 67.4578755,34.8717949 69.2161172,37.0989011 L71.2673993,39.6776557 C67.985348,42.4322344 62.6227106,44.043956 58.3736264,44.043956 C49.7289377,44.043956 44.3663004,38.7985348 44.3663004,31.0915751 C44.3663004,20.7472527 52.5421245,12.4542125 63.032967,12.4542125 C69.9194139,12.4542125 74.8133019,15.8534799 74.8133019,20.6886447 C74.8424908,27.4871795 69.2747253,31.2967033 59.8974359,30.9450549 M55.7362637,25.0549451 L61.0989011,25.0549451 C63.970696,25.0549451 65.6996337,24.0586081 65.7582418,22.4175824 C65.7582418,21.5384615 64.4688645,20.8937729 62.7106227,20.8937729 C59.8974359,20.8937729 57.3772894,22.6520147 55.7362637,25.0549451" id="Shape" fill="#01387B"></path>
                <path d="M41.4358974,14.9450549 C41.4358974,14.7692308 41.4358974,14.6227106 41.4358974,14.4761905 L40.1758242,15.0622711 L40.1758242,15.0622711 L40.1758242,15.0622711 C39.7362637,15.2673993 38.6813187,15.6190476 38.0952381,15.7362637 C37.7435897,15.7948718 37.3333333,15.8534799 36.8644689,15.8827839 C34.6080586,16.0879121 32.2051282,15.8241758 30.4175824,15.2087912 C30.1538462,15.1208791 29.8901099,15.003663 29.6263736,14.8864469 C29.8021978,15.1794872 29.8608059,15.5018315 29.8608059,15.8827839 C29.8608059,18.3443223 26.8131868,21.010989 23.8534799,21.010989 L17.2600733,21.010989 L18.8424908,13.5384615 L26.1391941,13.5384615 C26.7838828,13.5384615 27.3406593,13.5970696 27.8388278,13.7142857 C27.5164835,13.4212454 27.2527473,13.1282051 26.989011,12.7765568 C26.2271062,11.7802198 25.8168498,10.6959707 25.4065934,9.64102564 C24.7619048,7.97069597 24.1758242,6.38827839 22.2710623,5.01098901 C21.6849817,4.6007326 21.010989,4.24908425 20.2490842,3.98534799 C16.967033,2.84249084 12.8937729,3.45787546 11.3113553,3.75091575 L9.43589744,4.13186813 L2.43223443,37.8315018 C1.84615385,40.7032967 4.01465201,43.3699634 6.94505495,43.3699634 L12.6007326,43.3699634 L15.1794872,31.2967033 L18.959707,31.2967033 L23.6190476,39.032967 C25.2600733,41.7289377 28.1611722,43.3699634 31.3260073,43.3699634 L37.5970696,43.3699634 C38.1538462,43.3699634 38.5054945,42.7545788 38.2124542,42.2857143 L30.7692308,29.9487179 C37.0695971,27.5457875 41.4358974,21.9487179 41.4358974,14.9450549" id="Path" fill="#01387B"></path>
                <path d="M39.5604396,9.81684982 C37.6556777,7.26739927 35.1355311,5.12820513 32.1758242,3.51648352 C32.0879121,3.45787546 32,3.42857143 31.9120879,3.36996337 C31.7948718,3.31135531 31.7069597,3.25274725 31.5897436,3.19413919 C30.3882784,2.57875458 29.1575092,2.05128205 27.8974359,1.61172161 C27.4871795,1.46520147 27.1062271,1.34798535 26.6959707,1.23076923 C26.6666667,1.23076923 26.6080586,1.2014652 26.5787546,1.2014652 C26.2857143,1.11355311 26.021978,1.05494505 25.7289377,0.967032967 C25.4945055,0.908424908 25.2893773,0.84981685 25.0549451,0.791208791 C25.025641,0.791208791 24.996337,0.761904762 24.9377289,0.761904762 C19.3992674,-0.498168498 14.4175824,0.293040293 10.7838828,2.60805861 C12.1025641,2.34432234 16.5860806,1.58241758 20.3369963,2.87179487 C21.1575092,3.16483516 21.9487179,3.54578755 22.6520147,4.07326007 C26.1098901,6.59340659 25.8461538,9.78754579 27.5750916,12.0732601 C28.014652,12.6593407 28.5714286,13.1575092 29.3626374,13.5970696 C29.4212454,13.6263736 29.4798535,13.6556777 29.5384615,13.6849817 C29.8315018,13.8315018 30.1538462,13.978022 30.4761905,14.0952381 C32.2344322,14.7106227 34.5494505,14.8864469 36.4249084,14.7106227 C36.8058608,14.6813187 37.1868132,14.6227106 37.5384615,14.5641026 C37.978022,14.4761905 38.9450549,14.1538462 39.3553114,13.978022 L41.1428571,13.1282051 C41.0549451,12.8644689 40.967033,12.6007326 40.8791209,12.3369963 C40.5567766,11.4578755 40.1172161,10.6080586 39.5604396,9.81684982" id="Path" fill="#2271BF"></path>
                <path d="M40.8498168,12.3663004 C40.5274725,11.4578755 40.0586081,10.6080586 39.5018315,9.78754579 C37.5970696,7.20879121 35.047619,5.0989011 32.0879121,3.48717949 C32,3.42857143 31.9120879,3.3992674 31.8241758,3.34065934 C31.7069597,3.28205128 31.6190476,3.22344322 31.5018315,3.16483516 C30.3003663,2.57875458 29.0695971,2.05128205 27.8095238,1.61172161 C27.3992674,1.46520147 27.018315,1.34798535 26.6080586,1.23076923 C26.5787546,1.23076923 26.5201465,1.2014652 26.4908425,1.2014652 C26.4908425,1.2014652 26.4908425,1.2014652 26.4615385,1.2014652 C27.2820513,1.61172161 29.6263736,3.31135531 30.8864469,4.54212454 C34.6666667,8.26373626 34.3443223,11.047619 36.4249084,12.3956044 C38.1538462,13.5091575 41.1135531,13.1282051 41.1135531,13.1282051 C41.0549451,12.9230769 40.967033,12.6300366 40.8498168,12.3663004" id="Path" fill="#0094E2"></path>
                <path d="M0,75.4285714 L4.6007326,71.0915751 C6.71062271,73.0842491 9.43589744,73.96337 11.7509158,73.96337 C14.5934066,73.96337 15.9413919,72.6153846 15.9413919,71.5311355 C15.9413919,70.7399267 15.2380952,70.6520147 12.3663004,69.9194139 C7.58974359,68.7179487 3.83882784,67.7216117 3.83882784,63.0622711 C3.83882784,57.9340659 8.43956044,53.9194139 15.3553114,53.9194139 C19.1355311,53.9194139 22.6520147,55.1208791 25.1428571,57.4945055 L20.9230769,62.1538462 C18.8424908,60.3663004 16.2930403,59.7802198 14.6813187,59.7802198 C12.2490842,59.7802198 11.047619,61.1575092 11.047619,62.2124542 C11.047619,63.1208791 11.9267399,63.2967033 14.6520147,63.9120879 C20.4835165,65.2600733 23.0915751,66.6373626 23.0915751,70.6227106 C23.0915751,76.1904762 17.8461538,79.7948718 11.2234432,79.7948718 C6.71062271,79.8534799 2.57875458,78.1538462 0,75.4285714" id="Path" fill="#CC1D23"></path>
                <path d="M49.1428571,60.5714286 L45.2161172,79.4139194 L38.1831502,79.4139194 L38.5934066,77.5091575 C36.9230769,78.974359 34.8424908,79.8534799 32.4981685,79.8534799 C28.043956,79.8534799 25.2893773,76.7179487 25.2893773,72.1172161 C25.2893773,65.96337 29.6556777,60.1318681 35.7216117,60.1318681 C38.3589744,60.1318681 40.3809524,61.2747253 41.5824176,63.1794872 L42.1391941,60.5421245 L49.1428571,60.5421245 L49.1428571,60.5714286 Z M35.047619,74.021978 C37.9487179,74.021978 40.3223443,71.1794872 40.3223443,68.5714286 C40.3223443,66.959707 39.2967033,65.992674 37.6263736,65.992674 C34.5787546,65.992674 31.970696,68.5714286 31.970696,71.3846154 C32,72.996337 33.1135531,74.021978 35.047619,74.021978" id="Shape" fill="#CC1D23"></path>
                <polygon id="Path" fill="#CC1D23" points="54.3882784 53.9487179 61.4212454 53.9487179 56.1465201 79.4139194 49.1135531 79.4139194"></polygon>
                <path d="M83.018315,60.5714286 L79.0915751,79.4139194 L72.0586081,79.4139194 L72.3809524,77.9194139 C71.032967,79.1501832 69.2161172,79.8534799 67.1648352,79.8534799 C63.4725275,79.8534799 61.1868132,77.4212454 61.1868132,74.021978 C61.1868132,72.6446886 61.4798535,71.6776557 63.8241758,60.5714286 L70.5347985,60.5714286 C68.3076923,71.0915751 68.1904762,71.5604396 68.1904762,72.1172161 C68.1904762,73.3479853 68.9230769,74.021978 70.0952381,74.021978 C71.9120879,74.021978 73.5531136,72.5274725 73.8461538,70.8571429 L75.985348,60.5714286 L83.018315,60.5714286 Z" id="Path" fill="#CC1D23"></path>
                <path d="M109.010989,53.9487179 L103.736264,79.4139194 L96.7032967,79.4139194 L97.1135531,77.5091575 C95.4432234,78.974359 93.3626374,79.8534799 91.018315,79.8534799 C86.5641026,79.8534799 83.8095238,76.7179487 83.8095238,72.1172161 C83.8095238,65.96337 88.1758242,60.1318681 94.2417582,60.1318681 C96.8791209,60.1318681 98.9010989,61.2747253 100.102564,63.1501832 L102.007326,53.9194139 L109.010989,53.9194139 L109.010989,53.9487179 Z M93.5677656,74.021978 C96.4688645,74.021978 98.8424908,71.1794872 98.8424908,68.5714286 C98.8424908,66.959707 97.8168498,65.992674 96.1465201,65.992674 C93.0989011,65.992674 90.4908425,68.5714286 90.4908425,71.3846154 C90.4908425,72.996337 91.6336996,74.021978 93.5677656,74.021978" id="Shape" fill="#CC1D23"></path>
            </g>
        </g>
    </g>
</svg>