<?xml version="1.0" encoding="UTF-8"?>
<svg width="22px" height="22px" viewBox="0 0 22 22" version="1.1" xmlns="http://www.w3.org/2000/svg" xmlns:xlink="http://www.w3.org/1999/xlink">
    <!-- Generator: Sketch 64 (93537) - https://sketch.com -->
    <title>icono mesa</title>
    <desc>Created with Sketch.</desc>
    <g id="MESA-DE-PARTES" stroke="none" stroke-width="1" fill="none" fill-rule="evenodd">
        <g id="MESA-DE-PARTES-registrar-comprobante" transform="translate(-38.000000, -576.000000)" fill="#CC1D23" fill-rule="nonzero">
            <g id="icono-mesa" transform="translate(38.000000, 576.000000)">
                <path d="M18.307542,21.9957031 C12.6635404,21.9957031 7.01953888,21.9957031 1.37553732,21.9957031 C1.36694021,21.965625 1.34114889,21.9570312 1.31105901,21.9484375 C0.649081673,21.7679687 0.223524814,21.346875 0.0472840953,20.6851562 C0.0386869871,20.6550781 0.034388433,20.6292969 0,20.6207031 C0,20.075 0,19.5335937 0,18.9878906 C0.176240719,18.6140625 0.472840953,18.459375 0.885502149,18.5066406 C0.984368894,18.5195312 1.08753419,18.4980469 1.18640094,18.5109375 C1.38843298,18.5410156 1.42711997,18.459375 1.42711997,18.2660156 C1.42282141,14.4589844 1.42282141,10.6519531 1.42282141,6.84921875 C1.42282141,5.71914062 2.15787417,4.98867187 3.29269246,4.984375 C4.02344666,4.984375 4.75420086,4.97578125 5.48065651,4.98867187 C5.66119578,4.99296875 5.70418132,4.94140625 5.69988277,4.76523437 C5.69128566,3.5578125 5.69988277,2.34609375 5.69558421,1.13867187 C5.69558421,0.790625 5.7901524,0.494140625 6.0523642,0.253515625 C6.19421649,0.12890625 6.36615866,0.07734375 6.53380227,0 C9.03985932,0 11.5459164,0 14.0519734,0 C14.6064869,0.1890625 14.9202814,0.55859375 14.8729973,1.16445312 C14.855803,1.3921875 14.933177,1.43085937 15.1438062,1.4265625 C15.9132474,1.41367187 16.3044158,1.81328125 16.3044158,2.58242187 C16.3044158,3.31289062 16.3087143,4.04335937 16.3001172,4.77382812 C16.3001172,4.9328125 16.3302071,4.99296875 16.5064478,4.98867187 C17.237202,4.97578125 17.9679562,4.984375 18.6944119,4.984375 C18.8233685,4.984375 18.9523251,4.984375 19.0812818,5.00585937 C19.9925752,5.16054687 20.5771786,5.86523438 20.5771786,6.81484375 C20.5771786,10.5359375 20.5771786,14.2570312 20.5771786,17.978125 C20.5771786,18.15 20.5255959,18.3691406 20.611567,18.4765625 C20.7018367,18.5882812 20.9339586,18.5238281 21.1016022,18.5066406 C21.5142634,18.4679687 21.8194607,18.6097656 22,18.9921875 C22,19.5378906 22,20.0792969 22,20.625 C21.9269246,20.6679687 21.9441188,20.7496094 21.922626,20.8140625 C21.7420868,21.3511719 21.3853068,21.7121094 20.8565846,21.9054687 C20.7534193,21.9441406 20.6459555,21.9699219 20.5427902,22 C20.1559203,22 19.7690504,22 19.3821805,22 C19.2532239,21.9226563 19.1543572,21.8238281 19.1543572,21.65625 C19.1973427,21.4414062 19.3348964,21.346875 19.5541227,21.3511719 C19.8034388,21.3554688 20.0570535,21.3554688 20.3063697,21.3511719 C20.9038687,21.3382812 21.3509183,20.8914062 21.3595154,20.3027344 C21.363814,19.971875 21.3509183,19.6453125 21.363814,19.3144531 C21.3681125,19.1683594 21.3122313,19.1554688 21.1918718,19.1554688 C18.6729191,19.1597656 16.1496678,19.1554688 13.6307151,19.1511719 C13.5060571,19.1511719 13.4501758,19.1769531 13.458773,19.3144531 C13.4716686,19.4691406 13.4630715,19.628125 13.4630715,19.7871094 C13.4630715,20.315625 13.2008597,20.5734375 12.6721376,20.5734375 C11.5760063,20.5734375 10.479875,20.5734375 9.38374365,20.5734375 C8.79914029,20.5734375 8.5541227,20.3285156 8.5541227,19.7398438 C8.5541227,19.5550781 8.61860102,19.3101563 8.52403283,19.1984375 C8.41656897,19.0652344 8.16295428,19.1554688 7.9738179,19.1554688 C5.60531458,19.1511719 3.2325127,19.1554688 0.864009379,19.1511719 C0.704962876,19.1511719 0.63618601,19.1769531 0.649081673,19.3574219 C0.666275889,19.6410156 0.653380227,19.9289063 0.653380227,20.2167969 C0.653380227,20.9171875 1.09183275,21.3511719 1.79249707,21.3554688 C2.14067995,21.3554688 2.14067995,21.3554688 2.14927706,21.0203125 C2.15787417,20.7839844 2.27393513,20.6464844 2.47166862,20.6464844 C2.660805,20.6464844 2.78546307,20.7925781 2.79406018,21.0246094 C2.80695584,21.3554688 2.80695584,21.3554688 3.15084017,21.3554688 C3.15943728,21.3554688 3.16373583,21.3554688 3.17233294,21.3554688 C3.55060571,21.3554688 3.55060571,21.3554688 3.57209848,20.9773437 C3.58499414,20.7753906 3.70965221,20.6464844 3.89019148,20.6464844 C4.0664322,20.6464844 4.19968738,20.7796875 4.21258304,20.9773437 C4.21688159,21.0632812 4.22118015,21.1492187 4.21258304,21.2351562 C4.20398593,21.3253906 4.23407581,21.3683594 4.33294256,21.3554688 C4.38882376,21.3511719 4.44900352,21.3554688 4.50488472,21.3554688 C4.65963267,21.3511719 4.8444705,21.3941406 4.96483001,21.3253906 C5.05509965,21.2738281 4.98202423,21.071875 4.99491989,20.9386719 C4.99921844,20.9085938 5.003517,20.8828125 5.01211411,20.8570313 C5.06369676,20.7324219 5.15396639,20.659375 5.28722157,20.6507813 C5.41187964,20.6421875 5.51074639,20.6894531 5.57952325,20.7925781 C5.63540445,20.8742188 5.63540445,20.96875 5.63540445,21.0589844 C5.63540445,21.3554688 5.63540445,21.3554688 5.9406018,21.3554688 C9.98124267,21.3554688 14.017585,21.3554688 18.0582259,21.3511719 C18.2946463,21.3511719 18.46229,21.4113281 18.5267683,21.65625 C18.5138726,21.8066406 18.4193044,21.9054687 18.307542,21.9957031 Z M14.9116843,12.0914062 C15.5392732,12.1558594 15.6725283,12.0441406 15.6725283,11.4339844 C15.6596327,8.54648437 15.6682298,5.6546875 15.6682298,2.7671875 C15.6682298,2.10976562 15.5865572,2.03671875 14.9159828,2.0796875 C14.8644002,2.07539062 14.8171161,2.07109375 14.7655334,2.07109375 C12.6119578,2.07109375 10.4583822,2.07109375 8.30050801,2.07109375 C7.8706526,2.07109375 7.77178585,2.16992187 7.77178585,2.59960937 C7.77178585,5.59023437 7.77178585,8.58085937 7.77178585,11.5714844 C7.77178585,12.0054687 7.86635404,12.1042969 8.30050801,12.1042969 C10.4325909,12.1042969 12.5646737,12.1042969 14.7010551,12.1042969 C14.769832,12.1042969 14.8429074,12.0957031 14.9116843,12.0914062 Z M3.18093005,9.625 C2.90582259,9.53476562 2.84994138,9.45742187 2.84564283,9.178125 C2.84564283,8.50351562 2.84134428,7.83320312 2.84564283,7.15859375 C2.84564283,6.68164062 3.13364596,6.40664062 3.61078546,6.40664062 C4.1137163,6.40664062 4.61234857,6.40664062 5.11527941,6.40664062 C5.69988277,6.40664062 5.69128566,6.40664062 5.69558421,5.83085937 C5.69558421,5.66757812 5.64830012,5.62460937 5.48925361,5.62890625 C4.76709652,5.6375 4.04493943,5.63320312 3.31848378,5.63320312 C2.49745995,5.63320312 2.06760453,6.07148437 2.06760453,6.89648437 C2.06760453,10.6046875 2.06760453,14.3128906 2.06760453,18.0167969 C2.06760453,18.5109375 2.06760453,18.5152344 2.55334115,18.5109375 C2.88432982,18.5109375 2.84564283,18.5496094 2.84564283,18.2101562 C2.84564283,15.7136719 2.84564283,13.2128906 2.84564283,10.7164062 C2.84564283,10.4070312 2.90582259,10.3210937 3.1766315,10.2523437 C3.44744041,10.3296875 3.49042595,10.3855469 3.49042595,10.6777344 C3.49042595,13.1914062 3.49042595,15.7007812 3.49042595,18.2144531 C3.49042595,18.5109375 3.49042595,18.5109375 3.79992184,18.5109375 C6.83470106,18.5109375 9.86948027,18.5109375 12.908558,18.5109375 C14.7053537,18.5109375 16.5021493,18.5109375 18.2989449,18.5109375 C18.4279015,18.5109375 18.5267683,18.5238281 18.5267683,18.3304687 C18.5224697,14.6394531 18.5224697,10.9441406 18.5267683,7.253125 C18.5267683,7.09414062 18.4751856,7.04257812 18.3161391,7.046875 C17.74873,7.05546875 17.1856194,7.05117187 16.6182102,7.05117187 C16.3259086,7.05117187 16.3259086,7.05117187 16.3259086,7.33476562 C16.3259086,8.75273437 16.3302071,10.1707031 16.3259086,11.584375 C16.3259086,12.3019531 15.9089488,12.7488281 15.2383744,12.753125 C12.8913638,12.7574219 10.5400547,12.753125 8.19304416,12.753125 C7.99101211,12.753125 7.79327862,12.7101562 7.62133646,12.6027344 C7.27315358,12.3878906 7.12270418,12.0699219 7.13130129,11.6617187 C7.1398984,11.3394531 7.13130129,11.34375 6.82180539,11.3308594 C6.49081673,11.3179687 6.19421649,11.2234375 5.96209457,10.965625 C5.73856975,10.7164062 5.69558421,10.4199219 5.69128566,10.10625 C5.6869871,9.15234375 5.6869871,8.20273437 5.69128566,7.24882812 C5.69128566,7.08984375 5.64400156,7.03828125 5.48495506,7.04257812 C4.89605315,7.05117187 4.31144979,7.05546875 3.72254787,7.04257812 C3.52481438,7.03828125 3.48182884,7.11132812 3.48612739,7.29179687 C3.4947245,7.9234375 3.48182884,8.55078125 3.4947245,9.18242187 C3.4947245,9.42304687 3.41305197,9.56914062 3.18093005,9.625 Z M6.34466589,5.6375 C6.34466589,7.14140625 6.34466589,8.64101562 6.34466589,10.1449219 C6.34466589,10.5617187 6.4650254,10.6734375 6.8776866,10.6863281 C7.06682298,10.6949219 7.13130129,10.6476562 7.12700274,10.4457031 C7.11840563,7.8203125 7.12270418,5.19492187 7.12270418,2.56953125 C7.12270418,1.82617187 7.51817116,1.43085937 8.26182102,1.43085937 C9.96404846,1.43085937 11.6705744,1.43085937 13.3728019,1.43085937 C13.6178195,1.43085937 13.8585385,1.43085937 14.1035561,1.4265625 C14.1551387,1.4265625 14.2110199,1.44804687 14.2368113,1.36210937 C14.3528722,0.93671875 14.1465416,0.657421875 13.699492,0.657421875 C11.4298554,0.657421875 9.16021884,0.657421875 6.89058226,0.657421875 C6.45642829,0.657421875 6.34036733,0.769140625 6.34036733,1.19882812 C6.34466589,2.67265625 6.34466589,4.15507812 6.34466589,5.6375 Z M19.936694,12.5253906 C19.936694,10.6132812 19.936694,8.70546875 19.936694,6.79335937 C19.936694,6.11015625 19.4767487,5.64179687 18.7975772,5.6375 C18.1613912,5.62890625 17.5252052,5.63320312 16.8847206,5.63320312 C16.3087143,5.63320312 16.3130124,5.63320312 16.3130124,6.21757812 C16.3130124,6.36367187 16.3516999,6.41523437 16.5064478,6.4109375 C17.1168425,6.40234375 17.7229386,6.40664062 18.3333333,6.40664062 C18.9136381,6.40664062 19.1672528,6.66015625 19.1672528,7.24453125 C19.1672528,10.8152344 19.1672528,14.3859375 19.1672528,17.9609375 C19.1672528,18.5109375 19.1672528,18.5023438 19.7045721,18.5109375 C19.8894099,18.5152344 19.9452911,18.4722656 19.9452911,18.2789062 C19.9323955,16.3625 19.936694,14.4417969 19.936694,12.5253906 Z M11.0128957,19.1554688 C10.4712778,19.1554688 9.92536147,19.1597656 9.38374365,19.1511719 C9.24189136,19.146875 9.1731145,19.1726562 9.19030871,19.3316406 C9.20320438,19.4648438 9.20750293,19.6023437 9.19030871,19.7398437 C9.16881594,19.9117187 9.24618992,19.9375 9.39663931,19.9332031 C10.3423212,19.9246094 11.2837046,19.9332031 12.2293865,19.9289062 C12.4185229,19.9289062 12.6807347,20.0148437 12.7796014,19.8902344 C12.8741696,19.7699219 12.8010942,19.5207031 12.8182884,19.3316406 C12.8268855,19.1941406 12.7881985,19.1511719 12.6463462,19.1511719 C12.1004299,19.1597656 11.5545135,19.1554688 11.0128957,19.1554688 Z" id="Shape"></path>
                <path d="M10.968713,17.7620937 C10.8407163,17.7536269 10.6871204,17.7747938 10.5335244,17.7409268 C10.1751339,17.6604927 9.97887238,17.4318907 9.97460582,17.0762874 C9.97033927,16.8857857 9.97033927,16.695284 9.97460582,16.5047823 C9.97460582,16.4074147 9.95327305,16.3566143 9.84234264,16.331214 C9.30902336,16.2084462 9.12129498,15.6792748 9.46688587,15.260171 C9.81247676,14.8410672 10.1623342,14.4219634 10.5164582,14.0113263 C10.7553852,13.7319238 11.2417724,13.7319238 11.4806995,14.007093 C11.83909,14.4219634 12.1974806,14.8410672 12.5430715,15.2728711 C12.8758627,15.6877415 12.6838677,16.2126796 12.1590816,16.331214 C12.0524177,16.3566143 12.0182853,16.4031813 12.0225518,16.5005489 C12.0268184,16.6783505 12.0225518,16.8519187 12.0225518,17.0297204 C12.0182853,17.4742244 11.7665586,17.7366934 11.3185704,17.7620937 C11.20764,17.766327 11.1009761,17.7620937 10.968713,17.7620937 Z" id="Path"></path>
                <path d="M11.7318758,4.91648642 C11.3820621,4.91648642 11.0322484,4.92072529 10.6868075,4.91648642 C10.253913,4.90800868 9.98280745,4.64096002 9.97843478,4.22555098 C9.97406211,4.00089099 9.97406211,3.776231 9.97843478,3.54733215 C9.98280745,3.17007292 10.2582857,2.88606879 10.6474534,2.87759105 C11.3820621,2.86487445 12.1166708,2.86911332 12.8512795,2.87759105 C13.2448199,2.88182992 13.5159255,3.16159519 13.5246708,3.53885441 C13.5290435,3.78046987 13.5290435,4.01784646 13.5246708,4.25946192 C13.5159255,4.63248228 13.2535652,4.89953095 12.8687702,4.91224755 C12.4927205,4.92496415 12.1122981,4.91648642 11.7318758,4.91648642 C11.7318758,4.91648642 11.7318758,4.91648642 11.7318758,4.91648642 Z M11.7275031,4.27217853 C11.7275031,4.27641739 11.7275031,4.27641739 11.7275031,4.27217853 C11.9111553,4.27217853 12.0904348,4.27217853 12.274087,4.27217853 C12.8950062,4.27641739 12.8906335,4.27641739 12.8731429,3.67025931 C12.8687702,3.53885441 12.8206708,3.50494347 12.6938634,3.50494347 C12.2084969,3.50918234 11.7187578,3.50918234 11.2333913,3.50918234 C10.612472,3.50918234 10.6168447,3.50918234 10.6343354,4.11110155 C10.6387081,4.24674532 10.6868075,4.27641739 10.8136149,4.27641739 C11.1153292,4.26793966 11.4214161,4.27217853 11.7275031,4.27217853 Z" id="Shape"></path>
                <path d="M11.7389117,6.41783555 C10.8550804,6.41783555 9.97551886,6.41783555 9.0916876,6.41783555 C9.01910243,6.41783555 8.95078697,6.41783555 8.87820179,6.40878615 C8.69887371,6.37711324 8.60067024,6.25947102 8.60920967,6.06490889 C8.61347939,5.87939616 8.71168286,5.77532804 8.88247151,5.74817984 C8.94651725,5.73913043 9.01056299,5.73913043 9.07460874,5.73913043 C10.8593501,5.73913043 12.6440915,5.73913043 14.4288329,5.73913043 C14.5056878,5.73913043 14.5868124,5.73913043 14.6636673,5.75722924 C14.8131073,5.79795154 14.8899622,5.90654436 14.8942319,6.06943359 C14.8985017,6.23232282 14.8259165,6.34996504 14.6807461,6.39521204 C14.5996215,6.41783555 14.5142272,6.41783555 14.4288329,6.42236025 C13.5321925,6.42236025 12.6355521,6.41783555 11.7389117,6.41783555 Z" id="Path"></path>
                <path d="M11.7508377,7.1067252 C12.6396863,7.1067252 13.5285349,7.1067252 14.4216567,7.1067252 C14.494303,7.1067252 14.5669493,7.10218463 14.6353223,7.11580635 C14.7848881,7.14304977 14.8746276,7.23840176 14.8917209,7.40186232 C14.9088141,7.57440402 14.8447145,7.69245887 14.6908753,7.76056743 C14.6011358,7.796892 14.507123,7.78781086 14.4173834,7.78781086 C12.6396863,7.78781086 10.8577158,7.78781086 9.08001871,7.78781086 C9.00309912,7.78781086 8.92190622,7.78781086 8.84925994,7.76964858 C8.68260084,7.72424287 8.59713463,7.60164745 8.60995456,7.42002461 C8.62277449,7.23840176 8.72106063,7.13396863 8.89626636,7.11126578 C8.96036601,7.10218463 9.02446567,7.1067252 9.08856533,7.1067252 C9.97314059,7.1067252 10.8619892,7.1067252 11.7508377,7.1067252 Z" id="Path"></path>
                <path d="M11.7579535,8.47204969 C12.4367557,8.47204969 13.1155578,8.47204969 13.79436,8.47204969 C14.0607254,8.47204969 14.2153891,8.59958592 14.2110929,8.8136646 C14.2067967,9.02774327 14.0521329,9.1552795 13.7857675,9.1552795 C12.4281632,9.1552795 11.0705589,9.1552795 9.70865843,9.1552795 C9.68717735,9.1552795 9.66569627,9.1552795 9.64421519,9.1552795 C9.4337006,9.14161491 9.29192547,9.00041408 9.29192547,8.80455487 C9.29622168,8.60869565 9.4337006,8.47204969 9.65280762,8.47204969 C10.3530908,8.47204969 11.0576703,8.47204969 11.7579535,8.47204969 Z" id="Path"></path>
            </g>
        </g>
    </g>
</svg>