<?xml version="1.0" encoding="UTF-8"?>
<svg width="19px" height="22px" viewBox="0 0 19 22" version="1.1" xmlns="http://www.w3.org/2000/svg" xmlns:xlink="http://www.w3.org/1999/xlink">
    <title>Group</title>
    <g id="Page-1" stroke="none" stroke-width="1" fill="none" fill-rule="evenodd">
        <g id="VENTAS-INICIO-consultar-CDR" transform="translate(-40.000000, -465.000000)" fill="#CC1D23" fill-rule="nonzero">
            <g id="Group" transform="translate(40.000000, 465.000000)">
                <path d="M18.8549618,19.2317881 C18.8114504,18.5324503 18.7679389,17.9642384 18.6954198,17.3523179 C18.5648855,16.2887417 18.3763359,15.3417219 18.1152672,14.4384106 C17.9847328,14.0013245 17.8541985,13.5642384 17.5931298,13.1854305 C17.5496183,13.1271523 17.4916031,13.0688742 17.4480916,13.0251656 L17.4045802,12.981457 L17.3900763,12.9668874 C17.3755725,12.9377483 17.3465649,12.9086093 17.3175573,12.8794702 C16.9839695,12.6172185 16.6648855,12.4423841 16.3312977,12.3549669 C16.0122137,12.2675497 15.6931298,12.194702 15.3885496,12.1364238 C15.2290076,12.1072848 15.0839695,12.0635762 14.9244275,12.0344371 L14.7793893,12.005298 C14.4022901,11.9178808 14.010687,11.8304636 13.619084,11.7284768 C13.6045802,11.7284768 13.5755725,11.6993377 13.5610687,11.6556291 C13.5030534,11.5536424 13.4305344,11.4370861 13.3725191,11.3205298 C13.2854962,11.1456954 13.1839695,10.9708609 13.0824427,10.810596 C12.9229008,10.5483444 12.6763359,10.4754967 12.4152672,10.5774834 C12.4152672,10.4900662 12.4152672,10.4172185 12.4152672,10.3443709 C12.4152672,10.3152318 12.429771,10.2860927 12.4442748,10.2715232 C12.8503817,9.79072848 13.1694656,9.25165563 13.4160305,8.61059603 C13.4305344,8.58145695 13.459542,8.53774834 13.5030534,8.50860927 C13.7351145,8.3192053 13.8946565,8.08609272 13.9961832,7.80927152 C14.0977099,7.53245033 14.0832061,7.27019868 14.0832061,7.00794702 L14.0832061,6.94966887 C14.0832061,6.77483444 14.0687023,6.57086093 13.9816794,6.41059603 C13.8801527,6.19205298 13.8656489,5.97350993 13.8656489,5.71125828 C13.8656489,5.65298013 13.8656489,5.59470199 13.8656489,5.53642384 C13.8656489,5.44900662 13.8656489,5.34701987 13.8656489,5.25960265 C13.8656489,5.23046358 13.8946565,5.17218543 13.9236641,5.11390728 C13.9526718,5.05562914 13.9816794,4.99735099 14.010687,4.95364238 C14.0832061,4.82251656 14.170229,4.69139073 14.1847328,4.53112583 C14.2282443,4.05033113 14.2427481,3.62781457 14.1992366,3.23443709 C14.1557252,2.81192053 13.9091603,2.44768212 13.4885496,2.21456954 C13.4160305,2.17086093 13.4015267,2.15629139 13.4015267,2.06887417 C13.4015267,2.02516556 13.4015267,1.98145695 13.4015267,1.93774834 L13.4015267,1.92317881 C13.4015267,1.70463576 13.4160305,1.48609272 13.3725191,1.25298013 C13.2419847,0.539072848 12.589313,0.0145695364 11.8061069,4.14091131e-15 C11.5305344,4.14091131e-15 11.2694656,4.14091131e-15 10.9938931,4.14091131e-15 L10.5877863,4.14091131e-15 L9.8480916,4.14091131e-15 C9.26793893,4.14091131e-15 8.70229008,4.14091131e-15 8.1221374,4.14091131e-15 C8.04961832,4.14091131e-15 7.97709924,4.14091131e-15 7.90458015,4.14091131e-15 C7.62900763,4.14091131e-15 7.35343511,4.14091131e-15 7.06335878,0.0291390728 C6.39618321,0.116556291 5.85954198,0.641059603 5.75801527,1.26754967 C5.72900763,1.48609272 5.72900763,1.70463576 5.72900763,1.90860927 C5.72900763,1.98145695 5.72900763,2.05430464 5.72900763,2.14172185 C5.72900763,2.14172185 5.72900763,2.15629139 5.72900763,2.15629139 C5.72900763,2.15629139 5.72900763,2.15629139 5.71450382,2.15629139 C5.1778626,2.43311258 4.90229008,2.89933775 4.88778626,3.51125828 C4.88778626,3.64238411 4.88778626,3.78807947 4.88778626,3.9192053 C4.88778626,4.02119205 4.88778626,4.12317881 4.88778626,4.22516556 C4.88778626,4.54569536 4.96030534,4.80794702 5.11984733,5.01192053 C5.23587786,5.15761589 5.2648855,5.31788079 5.25038168,5.5218543 C5.25038168,5.56556291 5.25038168,5.60927152 5.25038168,5.66754967 C5.25038168,5.69668874 5.25038168,5.74039735 5.25038168,5.76953642 C5.25038168,5.81324503 5.25038168,5.87152318 5.25038168,5.92980132 C5.25038168,6.03178808 5.2648855,6.1192053 5.23587786,6.16291391 C5.04732824,6.54172185 5.03282443,6.9205298 5.03282443,7.28476821 C5.03282443,7.80927152 5.23587786,8.20264901 5.62748092,8.52317881 C5.65648855,8.55231788 5.68549618,8.58145695 5.7,8.61059603 C5.93206107,9.23708609 6.26564885,9.79072848 6.68625954,10.2860927 L6.70076336,10.3006623 C6.70076336,10.3006623 6.70076336,10.3006623 6.70076336,10.3006623 C6.70076336,10.4172185 6.70076336,10.5192053 6.70076336,10.6503311 C6.57022901,10.5629139 6.42519084,10.5337748 6.29465649,10.5483444 C6.1351145,10.5774834 6.00458015,10.6649007 5.88854962,10.8251656 C5.75801527,11.0145695 5.62748092,11.2476821 5.51145038,11.4953642 C5.42442748,11.6847682 5.32290076,11.7721854 5.14885496,11.8013245 C4.51068702,11.9324503 3.87251908,12.0635762 3.2778626,12.194702 C2.85725191,12.2821192 2.32061069,12.4278146 1.84198473,12.7629139 C1.78396947,12.8066225 1.7259542,12.8503311 1.68244275,12.9086093 C1.66793893,12.9231788 1.6389313,12.9523179 1.6389313,12.9523179 C1.62442748,12.9668874 1.60992366,12.9668874 1.59541985,12.981457 C1.5519084,13.010596 1.49389313,13.0543046 1.45038168,13.1125828 C1.42137405,13.1562914 1.39236641,13.2145695 1.36335878,13.2582781 C1.26183206,13.418543 1.16030534,13.5933775 1.10229008,13.7827815 L1.07328244,13.8556291 C0.899236641,14.3801325 0.72519084,14.9337748 0.609160305,15.4874172 C0.435114504,16.3615894 0.304580153,17.2649007 0.188549618,18.1390728 L0.188549618,18.1682119 C0.145038168,18.4887417 0.130534351,18.8092715 0.130534351,19.1152318 L0.130534351,19.2463576 C0.130534351,19.5377483 0.348091603,19.8874172 0.594656489,19.9748344 C0.609160305,19.989404 0.638167939,20.018543 0.652671756,20.0331126 C0.710687023,20.0913907 0.783206107,20.1496689 0.870229008,20.207947 C1.45038168,20.5576159 2.11755725,20.8344371 2.98778626,21.0529801 C3.66946565,21.2278146 4.36564885,21.3880795 5.13435115,21.5192053 C6.1351145,21.7086093 7.1648855,21.810596 8.19465649,21.8543046 C8.48473282,21.8688742 8.80381679,21.8688742 9.18091603,21.8688742 C9.42748092,21.8688742 9.6740458,21.8688742 9.92061069,21.8688742 L10.3992366,21.8688742 C11.3854962,21.8688742 12.3572519,21.7523179 13.0824427,21.6503311 C14.3007634,21.4754967 15.3450382,21.2569536 16.3022901,20.9655629 C16.8389313,20.7907285 17.4770992,20.5721854 18.0572519,20.2225166 C18.1442748,20.1642384 18.2312977,20.0913907 18.3038168,20.0331126 C18.3328244,20.0039735 18.3763359,19.9748344 18.3908397,19.9602649 C18.7389313,19.7708609 18.8694656,19.5231788 18.8549618,19.2317881 Z M3.39389313,13.5205298 C3.24885496,14.3072848 3.26335878,15.1231788 3.40839695,15.9099338 C3.4519084,16.1721854 3.52442748,16.4344371 3.58244275,16.6966887 C3.6259542,16.8860927 3.66946565,17.0609272 3.69847328,17.2503311 C3.69847328,17.2503311 3.69847328,17.2794702 3.69847328,17.2794702 C3.23435115,17.7165563 3.10381679,18.4450331 3.42290076,18.9695364 C3.78549618,19.5668874 4.45267176,19.8145695 5.09083969,19.581457 C5.7,19.3629139 6.06259542,18.7218543 5.97557252,18.0807947 C5.88854962,17.5562914 5.49694656,17.1192053 4.98931298,16.9880795 C4.88778626,16.9589404 4.80076336,16.9443709 4.69923664,16.9298013 L4.62671756,16.9152318 L4.59770992,16.813245 C4.55419847,16.6529801 4.51068702,16.4927152 4.46717557,16.3324503 C4.30763359,15.6476821 4.2351145,14.9483444 4.27862595,14.2781457 C4.30763359,13.7827815 4.40916031,13.3748344 4.56870229,13.010596 C4.58320611,12.9668874 4.59770992,12.9668874 4.64122137,12.9523179 C4.94580153,12.8794702 5.27938931,12.8066225 5.67099237,12.6900662 C5.9610687,12.6172185 6.17862595,12.4423841 6.30916031,12.1655629 C6.36717557,12.0344371 6.43969466,11.9033113 6.51221374,11.7721854 L6.52671756,11.7576159 L6.57022901,11.8013245 C6.70076336,11.9324503 6.81679389,12.0490066 6.91832061,12.1801325 C7.23740458,12.5880795 7.55648855,13.010596 7.8610687,13.418543 L7.90458015,13.4768212 C8.0351145,13.6516556 8.07862595,13.8701987 8.10763359,14.1324503 C8.18015267,14.8754967 8.26717557,15.6768212 8.38320611,16.5655629 C8.47022901,17.2649007 8.57175573,18.007947 8.65877863,18.6490066 L8.71679389,19.0715232 C8.77480916,19.4940397 8.83282443,19.9165563 8.89083969,20.3390728 L8.9778626,20.9655629 C8.89083969,20.9655629 8.81832061,20.9655629 8.73129771,20.9655629 C7.32442748,20.9218543 5.94656489,20.7615894 4.61221374,20.4847682 C3.84351145,20.3245033 2.82824427,20.0913907 1.85648855,19.6688742 C1.74045802,19.610596 1.62442748,19.5523179 1.50839695,19.4940397 C1.45038168,19.4649007 1.3778626,19.4211921 1.31984733,19.392053 C1.29083969,19.3774834 1.26183206,19.3774834 1.24732824,19.3629139 C1.11679389,19.202649 1.14580153,19.013245 1.17480916,18.7801325 C1.17480916,18.7509934 1.18931298,18.7072848 1.18931298,18.6781457 C1.27633588,17.9642384 1.40687023,17.0463576 1.56641221,16.1139073 C1.66793893,15.5602649 1.8129771,15.0211921 1.95801527,14.4821192 L1.97251908,14.4529801 C2.04503817,14.205298 2.13206107,13.9139073 2.3351145,13.7099338 C2.40763359,13.6662252 2.49465649,13.6370861 2.58167939,13.5933775 C2.78473282,13.4913907 2.98778626,13.389404 3.19083969,13.3165563 C3.2778626,13.2728477 3.39389313,13.2582781 3.49541985,13.2291391 C3.43740458,13.2874172 3.40839695,13.4039735 3.39389313,13.5205298 Z M4.61221374,17.818543 L4.61221374,17.8913907 C4.71374046,17.8913907 4.82977099,17.9350993 4.90229008,18.0225166 C4.97480916,18.0953642 5.01832061,18.197351 5.01832061,18.2993377 C5.01832061,18.4013245 4.97480916,18.5033113 4.88778626,18.5761589 C4.81526718,18.6490066 4.71374046,18.6927152 4.59770992,18.6927152 C4.38015267,18.6927152 4.20610687,18.5033113 4.20610687,18.2847682 C4.20610687,18.0662252 4.39465649,17.8913907 4.59770992,17.8913907 L4.61221374,17.818543 Z M12.6763359,2.95761589 C12.7633588,2.97218543 12.8503817,2.98675497 12.9229008,3.01589404 C13.1259542,3.08874172 13.2419847,3.23443709 13.2564885,3.4384106 C13.2709924,3.70066225 13.2854962,3.99205298 13.2564885,4.28344371 C13.2274809,4.57483444 13.0244275,4.73509934 12.7198473,4.73509934 C10.6312977,4.73509934 8.55725191,4.73509934 6.46870229,4.73509934 C6.16412214,4.73509934 5.94656489,4.53112583 5.91755725,4.25430464 C5.90305344,4.00662252 5.90305344,3.72980132 5.91755725,3.45298013 C5.93206107,3.20529801 6.12061069,3.01589404 6.39618321,2.97218543 C6.43969466,2.95761589 6.48320611,2.95761589 6.55572519,2.94304636 L6.75877863,2.89933775 L6.75877863,1.61721854 C6.75877863,1.19470199 6.99083969,0.961589404 7.39694656,0.961589404 C7.62900763,0.961589404 7.84656489,0.961589404 8.09312977,0.961589404 C8.19465649,0.961589404 8.28167939,0.961589404 8.38320611,0.961589404 L9.99312977,0.961589404 C10.5732824,0.961589404 11.1389313,0.961589404 11.719084,0.961589404 C11.9656489,0.961589404 12.1396947,1.01986755 12.2847328,1.15099338 C12.4007634,1.25298013 12.4442748,1.35496689 12.4442748,1.48609272 C12.4442748,1.63178808 12.4442748,1.77748344 12.4442748,1.92317881 C12.4442748,2.17086093 12.4442748,2.41854305 12.4442748,2.65165563 C12.429771,2.8410596 12.5167939,2.94304636 12.6763359,2.95761589 Z M6.0480916,6.99337748 C6.0480916,6.86225166 6.07709924,6.74569536 6.16412214,6.6 C6.2221374,6.51258278 6.25114504,6.39602649 6.25114504,6.2794702 C6.25114504,6.10463576 6.25114504,5.92980132 6.25114504,5.75496689 L6.25114504,5.69668874 L12.8793893,5.69668874 L12.8793893,5.75496689 C12.8793893,5.92980132 12.8793893,6.1192053 12.8793893,6.29403974 C12.8793893,6.38145695 12.9083969,6.48344371 12.9664122,6.57086093 C13.0389313,6.68741722 13.1114504,6.81854305 13.0969466,6.96423841 C13.0969466,7.02251656 13.0824427,7.0807947 13.0824427,7.13907285 C13.0679389,7.27019868 13.0679389,7.4013245 13.0389313,7.51788079 C13.0244275,7.63443709 12.9083969,7.70728477 12.7923664,7.78013245 C12.6908397,7.8384106 12.6183206,7.92582781 12.589313,8.01324503 C12.3572519,8.65430464 12.0961832,9.1205298 11.7770992,9.51390728 C11.1969466,10.2278146 10.4862595,10.6066225 9.65954198,10.6357616 C9.07938931,10.6649007 8.52824427,10.4900662 8.00610687,10.1258278 C7.54198473,9.79072848 7.1648855,9.33907285 6.86030534,8.75629139 C6.78778626,8.61059603 6.71526718,8.43576159 6.65725191,8.27549669 C6.61374046,8.17350993 6.57022901,8.07152318 6.52671756,7.96953642 C6.48320611,7.88211921 6.42519084,7.80927152 6.35267176,7.76556291 C6.12061069,7.64900662 6.01908397,7.45960265 6.03358779,7.21192053 C6.06259542,7.15364238 6.06259542,7.06622517 6.0480916,6.99337748 Z M8.71679389,12.9523179 C8.45572519,12.5735099 8.18015267,12.2092715 7.90458015,11.8596026 L7.84656489,11.9033113 L7.90458015,11.8596026 L7.78854962,11.7139073 C7.73053435,11.6410596 7.71603053,11.597351 7.71603053,11.5390728 C7.71603053,11.407947 7.71603053,11.2768212 7.71603053,11.1456954 C8.94885496,11.8450331 10.210687,11.8450331 11.4435115,11.1456954 C11.4435115,11.2768212 11.4435115,11.3933775 11.4290076,11.4953642 C11.4290076,11.5245033 11.3564885,11.5827815 11.3129771,11.6264901 C11.2839695,11.6556291 11.2549618,11.6847682 11.2259542,11.7139073 C10.848855,12.1509934 10.4717557,12.6317881 10.1816794,13.1854305 C10.0656489,13.4039735 9.99312977,13.6516556 9.97862595,13.9284768 C9.9351145,14.4238411 9.87709924,14.9192053 9.81908397,15.4145695 L9.81908397,15.4437086 C9.77557252,15.8370861 9.71755725,16.2450331 9.6740458,16.6384106 L9.64503817,16.8569536 C9.60152672,17.1774834 9.55801527,17.4980132 9.51450382,17.8039735 L9.47099237,17.4834437 C9.36946565,16.7403974 9.28244275,15.997351 9.18091603,15.2688742 C9.13740458,14.9046358 9.09389313,14.5112583 9.0648855,14.1470199 L9.03587786,13.8264901 C9.02137405,13.5059603 8.90534351,13.2291391 8.71679389,12.9523179 Z M10.0801527,20.9072848 L10.210687,19.989404 C10.2977099,19.3337748 10.3992366,18.6635762 10.4862595,18.007947 C10.5877863,17.192053 10.689313,16.3907285 10.7763359,15.6331126 C10.8053435,15.4145695 10.8198473,15.1960265 10.848855,14.9629139 C10.8778626,14.5986755 10.921374,14.2198675 10.9793893,13.8556291 C11.0083969,13.6662252 11.1244275,13.4768212 11.2549618,13.2874172 C11.5885496,12.7629139 12.0091603,12.2529801 12.5312977,11.7284768 C12.5603053,11.786755 12.6038168,11.8450331 12.6183206,11.9178808 C12.7778626,12.384106 13.1259542,12.6463576 13.7061069,12.7629139 C13.8221374,12.792053 13.9381679,12.8066225 14.0541985,12.8357616 C14.2282443,12.8794702 14.4022901,12.9086093 14.5908397,12.9523179 C14.648855,12.9668874 14.648855,12.9668874 14.6633588,13.010596 C14.7648855,13.389404 14.7648855,13.7827815 14.648855,14.3218543 C14.6343511,14.3655629 14.6343511,14.394702 14.6198473,14.4384106 L14.6198473,14.4384106 C14.5328244,14.4238411 14.4312977,14.4092715 14.329771,14.4092715 C13.6770992,14.3655629 13.0679389,14.5986755 12.4587786,15.1086093 C12.0526718,15.4437086 11.6900763,15.8662252 11.3709924,16.3761589 C11.240458,16.5801325 11.1969466,16.8278146 11.2549618,17.0754967 C11.3129771,17.3231788 11.4725191,17.5125828 11.6900763,17.6437086 C11.7625954,17.6874172 11.8351145,17.7165563 11.9076336,17.7456954 C12.1251908,17.8476821 12.3862595,17.7602649 12.5167939,17.5562914 C12.6328244,17.3668874 12.589313,17.0900662 12.429771,16.9443709 C12.3862595,16.9006623 12.3427481,16.8860927 12.2992366,16.8569536 C12.2847328,16.8423841 12.2557252,16.8278146 12.2412214,16.8278146 C12.2557252,16.813245 12.270229,16.784106 12.270229,16.784106 C12.6183206,16.2887417 12.9374046,15.9536424 13.3,15.7059603 C13.8946565,15.2834437 14.5618321,15.2980132 15.1129771,15.7496689 C15.4175573,15.997351 15.5916031,16.3324503 15.6641221,16.784106 C15.7221374,17.1774834 15.7076336,17.6145695 15.6061069,18.1390728 C15.4755725,18.0953642 15.3305344,18.1099338 15.2145038,18.1682119 C15.0984733,18.2264901 15.0259542,18.3284768 14.9824427,18.4450331 C14.9099237,18.7072848 15.040458,18.9695364 15.3160305,19.0569536 C15.5916031,19.1589404 15.8671756,19.1443709 16.0992366,19.013245 C16.3312977,18.8821192 16.4908397,18.6635762 16.548855,18.386755 C16.7229008,17.5854305 16.7229008,16.9298013 16.5633588,16.3178808 C16.4038168,15.7205298 16.070229,15.2397351 15.5625954,14.8900662 C15.519084,14.8609272 15.519084,14.8609272 15.5335878,14.802649 C15.678626,14.3072848 15.7366412,13.8556291 15.7076336,13.418543 C15.7076336,13.3602649 15.6931298,13.2874172 15.6931298,13.2145695 C15.9541985,13.2728477 16.1572519,13.3456954 16.3603053,13.4476821 C16.4328244,13.4768212 16.5053435,13.5350993 16.5778626,13.5788079 C16.621374,13.607947 16.6648855,13.6370861 16.7083969,13.6662252 C16.7374046,13.6807947 16.7664122,13.6953642 16.780916,13.6953642 C16.9259542,13.8993377 17.0274809,14.1470199 17.1435115,14.4821192 C17.3610687,15.1960265 17.5496183,15.9827815 17.6801527,16.8715232 C17.7526718,17.3523179 17.810687,17.8331126 17.8687023,18.3139073 C17.8977099,18.5178808 17.9122137,18.7218543 17.9412214,18.9258278 C17.970229,19.1443709 17.9557252,19.2463576 17.8687023,19.3337748 L17.7526718,19.392053 C17.6656489,19.4357616 17.5641221,19.4940397 17.4770992,19.5377483 C16.7954198,19.8728477 16.0557252,20.0913907 15.4320611,20.2516556 C14.2717557,20.5576159 13.0679389,20.7615894 11.7480916,20.8781457 C11.3854962,20.9072848 11.0083969,20.9218543 10.6312977,20.9509934 C10.4717557,20.9509934 10.3122137,20.9655629 10.1671756,20.9801325 C10.1526718,20.9801325 10.1236641,20.9801325 10.1091603,20.9801325 C10.0801527,20.9218543 10.0801527,20.9218543 10.0801527,20.9072848 Z" id="Shape"></path>
                <path d="M10.0656489,1.54437086 L9.92061069,1.54437086 C9.86259542,1.54437086 9.80458015,1.54437086 9.74656489,1.54437086 C9.63053435,1.54437086 9.51450382,1.54437086 9.4129771,1.54437086 C9.36946565,1.54437086 9.25343511,1.52980132 9.16641221,1.61721854 C9.09389313,1.69006623 9.09389313,1.79205298 9.09389313,1.86490066 C9.09389313,1.98145695 9.09389313,2.09801325 9.09389313,2.21456954 L9.09389313,2.24370861 L8.41221374,2.24370861 L8.41221374,3.21986755 L9.07938931,3.21986755 L9.07938931,3.23443709 C9.07938931,3.38013245 9.07938931,3.51125828 9.07938931,3.65695364 C9.07938931,3.71523179 9.13740458,3.90463576 9.26793893,3.90463576 C9.38396947,3.90463576 9.5,3.90463576 9.61603053,3.90463576 L10.0366412,3.90463576 L10.0366412,3.20529801 L10.7038168,3.20529801 L10.7038168,2.22913907 L10.0221374,2.22913907 L10.0221374,1.54437086 L10.0656489,1.54437086 Z" id="Path"></path>
            </g>
        </g>
    </g>
</svg>