<?xml version="1.0" encoding="UTF-8"?>
<svg width="47px" height="47px" viewBox="0 0 47 47" version="1.1" xmlns="http://www.w3.org/2000/svg" xmlns:xlink="http://www.w3.org/1999/xlink">
    <!-- Generator: Sketch 64 (93537) - https://sketch.com -->
    <title>retractil</title>
    <desc>Created with Sketch.</desc>
    <g id="Page-1" stroke="none" stroke-width="1" fill="none" fill-rule="evenodd">
        <g id="VENTAS-INICIO-comprobante-emitidos-detalle-Copy" transform="translate(-262.000000, -171.000000)">
            <g id="retractil" transform="translate(270.000000, 179.000000)">
                <circle id="Oval" stroke="#F3F9FF" stroke-width="8" fill="#CC1D23" cx="15.5" cy="15.5" r="19.5"></circle>
                <g id="Group-2" transform="translate(7.000000, 9.000000)" fill="#FFFFFF">
                    <path d="M15.9392482,1.38098056 C15.9753745,1.90001109 15.6266355,2.24701305 15.28464,2.59401502 C14.2360146,3.65735273 13.2064156,4.74179523 12.1245539,5.76905847 C11.585309,6.28170848 11.4535685,6.61594941 12.0872235,7.20025753 C13.2415785,8.26506767 14.290204,9.44816277 15.4021709,10.5620538 C16.0360666,11.1969153 16.2622172,11.8972997 15.6006246,12.5846777 C14.926749,13.2850622 14.2162655,13.015608 13.6054906,12.3979249 C11.8463816,10.618006 10.1017231,8.8228721 8.32936787,7.0566959 C7.93727731,6.66601193 7.85948539,6.40588316 8.29227822,5.97593447 C10.0959429,4.1842362 11.8642039,2.35548184 13.6567899,0.55175875 C14.1025882,0.10315932 14.6045026,-0.199669836 15.2675403,0.156657501 C15.749224,0.415559251 15.9587564,0.807715646 15.9392482,1.38098056" id="Fill-1"></path>
                    <path d="M7.96095418,1.30464403 C7.99260405,1.85604826 7.65170356,2.21031197 7.30838705,2.55991109 C6.2291507,3.65928248 5.17769859,4.7895875 4.05352426,5.83961239 C3.48092741,6.37456778 3.55534084,6.69495181 4.08010049,7.19357246 C5.19581875,8.25317204 6.24485484,9.3851956 7.3381041,10.4700822 C7.99695289,11.123862 8.3057203,11.8525208 7.58864543,12.5941915 C6.90515323,13.3012459 6.19484321,12.9909275 5.58648926,12.376183 C3.84695451,10.6188582 2.12094949,8.84729414 0.366677017,7.10543617 C-0.0549185559,6.68685014 -0.166538702,6.40451939 0.31859821,5.92701217 C2.10935259,4.16477728 3.85782661,2.35761497 5.62901122,0.574512158 C6.07839103,0.122046443 6.58092328,-0.192199957 7.24629532,0.135303713 C7.72925782,0.372952553 7.97931594,0.753730808 7.96095418,1.30464403" id="Fill-3"></path>
                </g>
            </g>
        </g>
    </g>
</svg>