<svg width="33" height="32" viewBox="0 0 33 32" fill="none" xmlns="http://www.w3.org/2000/svg">
<g clip-path="url(#clip0_331_2052)">
<path d="M28.1729 4.68105C21.7364 -1.56035 11.2639 -1.56035 4.82748 4.68105C-1.60883 10.9223 -1.60883 21.0777 4.82748 27.319C8.0457 30.4397 12.273 32 16.5003 32C20.7276 32 24.9547 30.4397 28.1731 27.319C34.6093 21.0777 34.6093 10.9223 28.1729 4.68105ZM6.49502 25.7021C0.978163 20.3524 0.978163 11.6477 6.49502 6.29806C9.25351 3.62328 12.8768 2.28577 16.5001 2.28577C20.1235 2.28577 23.7469 3.62316 26.5053 6.29806C32.0221 11.6477 32.0221 20.3524 26.5053 25.7021C20.9884 31.0516 12.0119 31.0516 6.49502 25.7021Z" fill="#CC1D23"/>
<path d="M25.5245 14.8566H17.6791V7.24898C17.6791 6.61745 17.1513 6.10559 16.5 6.10559C15.8487 6.10559 15.3209 6.61745 15.3209 7.24898V14.8566H7.47551C6.82424 14.8566 6.29639 15.3685 6.29639 16C6.29639 16.6315 6.82424 17.1434 7.47551 17.1434H15.3209V24.751C15.3209 25.3826 15.8487 25.8944 16.5 25.8944C17.1513 25.8944 17.6791 25.3826 17.6791 24.751V17.1434H25.5245C26.1758 17.1434 26.7036 16.6315 26.7036 16C26.7036 15.3685 26.1758 14.8566 25.5245 14.8566Z" fill="#CC1D23"/>
</g>
<defs>
<clipPath id="clip0_331_2052">
<rect width="33" height="32" fill="white"/>
</clipPath>
</defs>
</svg>
