<svg width="93" height="71" viewBox="0 0 93 71" fill="none" xmlns="http://www.w3.org/2000/svg">
<g id="actualizacion enviada">
<g id="DESIGNED_BY_FREEPIK">
<g id="Group">
<path id="Path" d="M63.9536 70.6856H14.0463C11.4377 70.6856 9.31641 68.5556 9.31641 65.9364V32.2601H68.6834V65.9364C68.6834 68.5556 66.5622 70.6856 63.9536 70.6856Z" fill="#003D8B"/>
<path id="Path_2" d="M68.6834 32.2601H39.0143H9.31641L35.9183 4.05267C37.581 2.2969 40.3902 2.2969 42.0528 4.05267L68.6834 32.2601Z" fill="#0266B0"/>
<path id="Path_3" d="M68.6836 32.2601V64.9577C68.6836 68.1239 66.1323 70.6856 62.9791 70.6856H15.0497C11.8965 70.6856 9.34521 68.1239 9.34521 64.9577V32.2601L39.0144 51.5448L68.6836 32.2601Z" fill="#0582DD"/>
<path id="Path_4" opacity="0.3323" d="M60.5997 37.4987V56.8409C60.5997 60.007 58.0484 62.5687 54.8952 62.5687H9.31641V64.9577C9.31641 68.1239 11.8677 70.6856 15.0209 70.6856H62.9503C66.1035 70.6856 68.6548 68.1239 68.6548 64.9577V32.2601L60.5997 37.4987Z" fill="#24587E"/>
<circle id="Oval" opacity="0.1487" cx="69.4319" cy="54.3415" r="9.24922" transform="rotate(-45 69.4319 54.3415)" fill="#020202"/>
<circle id="Oval_2" cx="68.2332" cy="52.8356" r="9.24922" transform="rotate(-45 68.2332 52.8356)" fill="#85CCFF"/>
<path id="Path_5" opacity="0.3136" d="M77.4551 52.8113C77.4551 57.9347 73.3273 62.0795 68.2247 62.0795C65.0715 62.0795 62.2622 60.4964 60.5996 58.0499C62.0902 59.086 63.8675 59.6617 65.8168 59.6617C70.9193 59.6617 75.0472 55.5169 75.0472 50.3936C75.0472 48.4363 74.4452 46.6518 73.4419 45.155C75.8785 46.8532 77.4551 49.6452 77.4551 52.8113Z" fill="#05498B"/>
<g id="Group_2">
<path id="Path_6" d="M11.6066 27.8909C11.2913 28.0924 10.976 28.3226 10.6606 28.5241" stroke="#2271BF"/>
<path id="Path_7" d="M8.79713 29.848C6.61852 31.4599 4.58324 33.2157 3.12128 35.4895C1.05734 38.7132 0.455355 43.2034 2.71996 46.2832C4.66924 48.9312 8.10915 49.9099 11.3771 50.284C18.9162 51.1475 26.57 49.6796 33.6218 46.8876C40.6736 44.1244 47.1807 40.066 53.4012 35.7198C56.2678 33.705 59.1057 31.6326 61.5137 29.0709C64.2083 26.1926 65.4122 22.5371 67.0175 18.968C67.5622 17.7591 68.0208 16.2048 67.1035 15.2838C66.5875 14.7945 65.8136 14.6793 65.0969 14.7657C63.6923 14.9672 62.431 15.9746 61.915 17.2986C61.399 18.6226 61.6283 20.2057 62.4883 21.3282C63.6923 22.8825 65.8996 23.3431 67.7915 22.9401C69.7121 22.5371 71.3748 21.4146 72.894 20.2057C76.1333 17.644 78.9999 14.6218 81.4078 11.2542" stroke="#26C5F9" stroke-dasharray="1 1"/>
<path id="Path_8" d="M82.0669 10.3043C82.2676 9.98772 82.4969 9.67111 82.6975 9.35449" stroke="#2271BF"/>
</g>
<path id="Path_9" d="M71.7505 21.3282L78.2576 15.1974L74.5884 14.1613L71.7505 21.3282Z" fill="#00518C"/>
<path id="Path_10" d="M71.8082 12.3479L71.7509 21.3283L74.7895 14.334L92.9063 0L71.6362 11.8011L71.8082 12.3479Z" fill="#127FCD"/>
<path id="Path_11" d="M66.5049 9.81506L71.8654 12.2904L92.9062 0.0288086L66.5336 9.18183C66.2469 9.26818 66.2182 9.67115 66.5049 9.81506Z" fill="#85CCFF"/>
<path id="Path_12" d="M92.906 0L74.8179 14.334L81.755 17.7016C81.9843 17.8167 82.2423 17.7304 82.3857 17.5001L92.906 0Z" fill="#85CCFF"/>
<path id="Path_13" opacity="0.3323" d="M10.4917 35.8868L38.9569 54.97L66.1322 37.7577" stroke="#24587E" stroke-width="2" stroke-linecap="round" stroke-linejoin="round"/>
<g id="Group_3">
<path id="Path_14" d="M68.4831 57.359H68.3111C67.6231 57.359 67.0498 56.7833 67.0498 56.0925V50.0481C67.0498 49.3573 67.6231 48.7816 68.3111 48.7816H68.4831C69.1711 48.7816 69.7444 49.3573 69.7444 50.0481V56.0925C69.7444 56.7833 69.1997 57.359 68.4831 57.359Z" fill="white"/>
<path id="Path_15" d="M72.7255 52.9552V53.1279C72.7255 53.8187 72.1522 54.3943 71.4642 54.3943H65.4444C64.7564 54.3943 64.1831 53.8187 64.1831 53.1279V52.9552C64.1831 52.2644 64.7564 51.6887 65.4444 51.6887H71.4642C72.1522 51.6887 72.7255 52.2644 72.7255 52.9552Z" fill="white"/>
</g>
</g>
</g>
</g>
</svg>
